<?xml version="1.0" encoding="UTF-8" standalone="no" ?>
<!DOCTYPE svg PUBLIC "-//W3C//DTD SVG 1.1//EN" "http://www.w3.org/Graphics/SVG/1.1/DTD/svg11.dtd">
<svg xmlns="http://www.w3.org/2000/svg" xmlns:xlink="http://www.w3.org/1999/xlink" version="1.1" width="1280" height="1024" viewBox="0 0 1280 1024" xml:space="preserve">
<desc>Created with Fabric.js 3.6.3</desc>
<defs>
</defs>
<g transform="matrix(1.9692780337941629 0 0 1.9692780337941629 640.0153846153846 512.012312418764)" id="background-logo"  >
<rect style="stroke: none; stroke-width: 1; stroke-dasharray: none; stroke-linecap: butt; stroke-dashoffset: 0; stroke-linejoin: miter; stroke-miterlimit: 10; fill: rgb(0,0,0); fill-rule: nonzero; opacity: 1;"  paint-order="stroke"  x="-325" y="-260" rx="0" ry="0" width="650" height="520" />
</g>
<g transform="matrix(1.9692780337941629 0 0 1.9692780337941629 638.0315267668043 625.6489486098798)" id="text-logo-path"  >
<path style="stroke: none; stroke-width: 1; stroke-dasharray: none; stroke-linecap: butt; stroke-dashoffset: 0; stroke-linejoin: miter; stroke-miterlimit: 10; fill: rgb(255,255,255); fill-rule: nonzero; opacity: 1;"  paint-order="stroke"  transform=" translate(-278.35, 30.81)" d="M 15.94 0 L 1.76 0 L 1.76 -42.67 Q 1.76 -46.62 3.27 -50.06 Q 4.77 -53.5 7.3 -56.05 Q 9.84 -58.61 13.28 -60.11 Q 16.71 -61.62 20.67 -61.62 L 20.67 -61.62 L 49.11 -61.62 L 49.11 -47.35 L 20.67 -47.35 Q 18.65 -47.35 17.29 -45.98 Q 15.94 -44.6 15.94 -42.67 L 15.94 -42.67 L 15.94 -37.94 L 49.11 -37.94 L 49.11 -23.68 L 15.94 -23.68 L 15.94 0 Z M 66.77 0 L 52.59 0 L 52.59 -61.62 L 66.77 -61.62 L 66.77 0 Z M 84.43 0 L 70.25 0 L 70.25 -42.67 Q 70.25 -46.62 71.76 -50.06 Q 73.26 -53.5 75.8 -56.05 Q 78.33 -58.61 81.77 -60.11 Q 85.21 -61.62 89.16 -61.62 L 89.16 -61.62 L 98.66 -61.62 Q 102.61 -61.62 106.05 -60.11 Q 109.48 -58.61 112.04 -56.05 Q 114.6 -53.5 116.1 -50.06 Q 117.61 -46.62 117.61 -42.67 L 117.61 -42.67 L 117.61 0 L 103.43 0 L 103.43 -42.67 Q 103.43 -44.6 102.07 -46.02 Q 100.72 -47.44 98.66 -47.44 L 98.66 -47.44 L 89.16 -47.44 Q 87.14 -47.44 85.79 -46.02 Q 84.43 -44.6 84.43 -42.67 L 84.43 -42.67 L 84.43 0 Z M 135.27 0 L 121.09 0 L 121.09 -61.62 L 135.27 -61.62 L 149.49 -61.62 Q 153.44 -61.62 156.88 -60.11 Q 160.32 -58.61 162.87 -56.05 Q 165.43 -53.5 166.93 -50.06 Q 168.44 -46.62 168.44 -42.67 L 168.44 -42.67 L 168.44 -18.91 Q 168.44 -14.95 166.93 -11.52 Q 165.43 -8.08 162.87 -5.54 Q 160.32 -3.01 156.9 -1.5 Q 153.48 0 149.49 0 L 149.49 0 L 135.27 0 Z M 135.27 -47.35 L 135.27 -14.18 L 149.49 -14.18 Q 151.51 -14.18 152.88 -15.58 Q 154.26 -16.97 154.26 -18.91 L 154.26 -18.91 L 154.26 -42.67 Q 154.26 -44.6 152.9 -45.98 Q 151.55 -47.35 149.49 -47.35 L 149.49 -47.35 L 135.27 -47.35 Z M 203.84 -28.45 L 189.58 -61.62 L 204.19 -61.62 L 210.89 -42.67 L 217.64 -61.62 L 232.25 -61.62 L 217.98 -28.45 L 217.98 0 L 203.84 0 L 203.84 -28.45 Z M 235.77 -18.91 L 235.77 -18.91 L 235.77 -42.67 Q 235.77 -46.62 237.27 -50.06 Q 238.78 -53.5 241.31 -56.05 Q 243.85 -58.61 247.29 -60.11 Q 250.72 -61.62 254.68 -61.62 L 254.68 -61.62 L 264.17 -61.62 Q 268.13 -61.62 271.56 -60.11 Q 275 -58.61 277.56 -56.05 Q 280.11 -53.5 281.62 -50.06 Q 283.12 -46.62 283.12 -42.67 L 283.12 -42.67 L 283.12 -18.91 Q 283.12 -14.95 281.62 -11.52 Q 280.11 -8.08 277.56 -5.54 Q 275 -3.01 271.58 -1.5 Q 268.17 0 264.17 0 L 264.17 0 L 254.68 0 Q 250.72 0 247.29 -1.5 Q 243.85 -3.01 241.31 -5.54 Q 238.78 -8.08 237.27 -11.52 Q 235.77 -14.95 235.77 -18.91 Z M 249.95 -42.67 L 249.95 -18.91 Q 249.95 -16.97 251.3 -15.58 Q 252.66 -14.18 254.68 -14.18 L 254.68 -14.18 L 264.17 -14.18 Q 266.19 -14.18 267.57 -15.58 Q 268.94 -16.97 268.94 -18.91 L 268.94 -18.91 L 268.94 -42.67 Q 268.94 -44.6 267.59 -45.98 Q 266.23 -47.35 264.17 -47.35 L 264.17 -47.35 L 254.68 -47.35 Q 252.66 -47.35 251.3 -45.98 Q 249.95 -44.6 249.95 -42.67 L 249.95 -42.67 Z M 286.6 -18.91 L 286.6 -18.91 L 286.6 -61.62 L 300.78 -61.62 L 300.78 -18.91 Q 300.78 -16.97 302.13 -15.58 Q 303.49 -14.18 305.51 -14.18 L 305.51 -14.18 L 315 -14.18 Q 317.02 -14.18 318.4 -15.58 Q 319.77 -16.97 319.77 -18.91 L 319.77 -18.91 L 319.77 -61.62 L 333.95 -61.62 L 333.95 -18.91 Q 333.95 -14.95 332.45 -11.52 Q 330.95 -8.08 328.39 -5.54 Q 325.83 -3.01 322.42 -1.5 Q 319 0 315 0 L 315 0 L 305.51 0 Q 301.55 0 298.12 -1.5 Q 294.68 -3.01 292.14 -5.54 Q 289.61 -8.08 288.11 -11.52 Q 286.6 -14.95 286.6 -18.91 Z M 351.61 0 L 337.43 0 L 337.43 -61.62 L 351.61 -61.62 L 365.84 -61.62 Q 369.79 -61.62 373.23 -60.11 Q 376.66 -58.61 379.22 -56.05 Q 381.78 -53.5 383.28 -50.06 Q 384.79 -46.62 384.79 -42.67 L 384.79 -42.67 Q 384.79 -39.32 383.69 -36.29 Q 382.59 -33.26 380.66 -30.81 L 380.66 -30.81 Q 382.59 -28.36 383.69 -25.31 Q 384.79 -22.26 384.79 -18.91 L 384.79 -18.91 L 384.79 0 L 370.61 0 L 370.61 -18.91 Q 370.61 -20.93 369.25 -22.3 Q 367.9 -23.68 365.84 -23.68 L 365.84 -23.68 L 351.61 -23.68 L 351.61 0 Z M 351.61 -47.35 L 351.61 -37.94 L 365.84 -37.94 Q 367.86 -37.94 369.23 -39.29 Q 370.61 -40.65 370.61 -42.67 L 370.61 -42.67 Q 370.61 -44.6 369.25 -45.98 Q 367.9 -47.35 365.84 -47.35 L 365.84 -47.35 L 351.61 -47.35 Z M 405.93 -18.91 L 405.93 -18.91 L 405.93 -42.67 Q 405.93 -46.62 407.43 -50.06 Q 408.93 -53.5 411.47 -56.05 Q 414 -58.61 417.44 -60.11 Q 420.88 -61.62 424.83 -61.62 L 424.83 -61.62 L 434.33 -61.62 Q 438.28 -61.62 441.72 -60.11 Q 445.16 -58.61 447.71 -56.05 Q 450.27 -53.5 451.77 -50.06 Q 453.28 -46.62 453.28 -42.67 L 453.28 -42.67 L 439.1 -42.67 Q 439.1 -44.6 437.74 -45.98 Q 436.39 -47.35 434.33 -47.35 L 434.33 -47.35 L 424.83 -47.35 Q 422.81 -47.35 421.46 -45.98 Q 420.11 -44.6 420.11 -42.67 L 420.11 -42.67 L 420.11 -18.91 Q 420.11 -16.97 421.46 -15.58 Q 422.81 -14.18 424.83 -14.18 L 424.83 -14.18 L 434.33 -14.18 Q 436.35 -14.18 437.72 -15.58 Q 439.1 -16.97 439.1 -18.91 L 439.1 -18.91 L 453.28 -18.91 Q 453.28 -14.95 451.77 -11.52 Q 450.27 -8.08 447.71 -5.54 Q 445.16 -3.01 441.74 -1.5 Q 438.32 0 434.33 0 L 434.33 0 L 424.83 0 Q 420.88 0 417.44 -1.5 Q 414 -3.01 411.47 -5.54 Q 408.93 -8.08 407.43 -11.52 Q 405.93 -14.95 405.93 -18.91 Z M 470.94 0 L 456.76 0 L 473.21 -61.62 L 473.39 -61.62 L 487.48 -61.62 L 487.65 -61.62 L 504.11 0 L 489.93 0 L 480.43 -35.36 L 470.94 0 Z M 521.77 0 L 507.59 0 L 507.59 -61.62 L 521.77 -61.62 L 535.99 -61.62 Q 539.95 -61.62 543.38 -60.11 Q 546.82 -58.61 549.38 -56.05 Q 551.93 -53.5 553.44 -50.06 Q 554.94 -46.62 554.94 -42.67 L 554.94 -42.67 Q 554.94 -39.32 553.85 -36.29 Q 552.75 -33.26 550.82 -30.81 L 550.82 -30.81 Q 552.75 -28.36 553.85 -25.31 Q 554.94 -22.26 554.94 -18.91 L 554.94 -18.91 L 554.94 0 L 540.76 0 L 540.76 -18.91 Q 540.76 -20.93 539.41 -22.3 Q 538.05 -23.68 535.99 -23.68 L 535.99 -23.68 L 521.77 -23.68 L 521.77 0 Z M 521.77 -47.35 L 521.77 -37.94 L 535.99 -37.94 Q 538.01 -37.94 539.39 -39.29 Q 540.76 -40.65 540.76 -42.67 L 540.76 -42.67 Q 540.76 -44.6 539.41 -45.98 Q 538.05 -47.35 535.99 -47.35 L 535.99 -47.35 L 521.77 -47.35 Z" stroke-linecap="round" />
</g>
<g transform="matrix(1.9692780337941629 0 0 1.9692780337941629 640.0153846153846 763.1294055406233)" id="tagline-24aa730c-9b90-4ed5-a4af-f70b2e592a49-logo-path"  >
<path style="stroke: none; stroke-width: 0; stroke-dasharray: none; stroke-linecap: butt; stroke-dashoffset: 0; stroke-linejoin: miter; stroke-miterlimit: 4; fill: rgb(255,255,255); fill-rule: nonzero; opacity: 1;"  paint-order="stroke"  transform=" translate(-200.52999999999997, 19.255)" d="M 1.1 -11.82 L 1.1 -11.82 L 1.1 -38.51 L 9.96 -38.51 L 9.96 -11.82 Q 9.96 -10.61 10.81 -9.74 Q 11.66 -8.86 12.92 -8.86 L 12.92 -8.86 L 18.85 -8.86 Q 20.11 -8.86 20.97 -9.74 Q 21.83 -10.61 21.83 -11.82 L 21.83 -11.82 L 21.83 -38.51 L 30.7 -38.51 L 30.7 -11.82 Q 30.7 -9.35 29.76 -7.2 Q 28.82 -5.05 27.22 -3.46 Q 25.62 -1.88 23.49 -0.94 Q 21.35 0 18.85 0 L 18.85 0 L 12.92 0 Q 10.45 0 8.3 -0.94 Q 6.15 -1.88 4.57 -3.46 Q 2.98 -5.05 2.04 -7.2 Q 1.1 -9.35 1.1 -11.82 Z M 50.62 0 L 32.87 0 L 32.87 -8.86 L 50.62 -8.86 Q 51.88 -8.92 52.74 -9.76 Q 53.6 -10.61 53.6 -11.82 L 53.6 -11.82 Q 53.6 -13.08 52.76 -13.94 Q 51.91 -14.8 50.62 -14.8 L 50.62 -14.8 L 44.69 -14.8 Q 42.22 -14.8 40.07 -15.74 Q 37.92 -16.68 36.34 -18.29 Q 34.75 -19.9 33.81 -22.05 Q 32.87 -24.2 32.87 -26.67 L 32.87 -26.67 Q 32.87 -29.14 33.81 -31.29 Q 34.75 -33.44 36.34 -35.03 Q 37.92 -36.63 40.07 -37.57 Q 42.22 -38.51 44.69 -38.51 L 44.69 -38.51 L 56.53 -38.51 L 56.53 -29.59 L 44.69 -29.59 Q 43.43 -29.59 42.58 -28.74 Q 41.73 -27.88 41.73 -26.67 L 41.73 -26.67 Q 41.73 -25.41 42.58 -24.56 Q 43.43 -23.71 44.69 -23.71 L 44.69 -23.71 L 50.62 -23.71 Q 53.09 -23.71 55.24 -22.77 Q 57.39 -21.83 58.99 -20.21 Q 60.59 -18.58 61.53 -16.44 Q 62.47 -14.29 62.47 -11.82 L 62.47 -11.82 Q 62.47 -9.35 61.53 -7.2 Q 60.59 -5.05 58.99 -3.46 Q 57.39 -1.88 55.26 -0.94 Q 53.12 0 50.62 0 L 50.62 0 Z M 64.64 -11.82 L 64.64 -11.82 L 64.64 -26.67 Q 64.64 -29.14 65.58 -31.29 Q 66.52 -33.44 68.11 -35.03 Q 69.69 -36.63 71.84 -37.57 Q 73.99 -38.51 76.46 -38.51 L 76.46 -38.51 L 94.24 -38.51 L 94.24 -29.59 L 76.46 -29.59 Q 75.2 -29.59 74.35 -28.74 Q 73.5 -27.88 73.5 -26.67 L 73.5 -26.67 L 73.5 -23.71 L 94.24 -23.71 L 94.24 -14.8 L 73.5 -14.8 L 73.5 -11.82 Q 73.5 -10.61 74.35 -9.74 Q 75.2 -8.86 76.46 -8.86 L 76.46 -8.86 L 94.24 -8.86 L 94.24 0 L 76.46 0 Q 73.99 0 71.84 -0.94 Q 69.69 -1.88 68.11 -3.46 Q 66.52 -5.05 65.58 -7.2 Q 64.64 -9.35 64.64 -11.82 Z M 116.31 0 L 107.45 0 L 107.45 -38.51 L 116.31 -38.51 L 116.31 0 Z M 127.4 -29.59 L 118.49 -29.59 L 118.49 -38.51 L 145.15 -38.51 L 145.15 -29.59 L 136.24 -29.59 L 136.24 0 L 127.4 0 L 127.4 -29.59 Z M 158.39 -11.82 L 158.39 -11.82 L 158.39 -26.67 Q 158.39 -29.14 159.33 -31.29 Q 160.27 -33.44 161.86 -35.03 Q 163.44 -36.63 165.59 -37.57 Q 167.74 -38.51 170.21 -38.51 L 170.21 -38.51 L 176.15 -38.51 Q 178.62 -38.51 180.76 -37.57 Q 182.91 -36.63 184.51 -35.03 Q 186.11 -33.44 187.05 -31.29 Q 187.99 -29.14 187.99 -26.67 L 187.99 -26.67 L 187.99 -11.82 Q 187.99 -9.35 187.05 -7.2 Q 186.11 -5.05 184.51 -3.46 Q 182.91 -1.88 180.78 -0.94 Q 178.64 0 176.15 0 L 176.15 0 L 170.21 0 Q 167.74 0 165.59 -0.94 Q 163.44 -1.88 161.86 -3.46 Q 160.27 -5.05 159.33 -7.2 Q 158.39 -9.35 158.39 -11.82 Z M 167.26 -26.67 L 167.26 -11.82 Q 167.26 -10.61 168.1 -9.74 Q 168.95 -8.86 170.21 -8.86 L 170.21 -8.86 L 176.15 -8.86 Q 177.41 -8.86 178.27 -9.74 Q 179.13 -10.61 179.13 -11.82 L 179.13 -11.82 L 179.13 -26.67 Q 179.13 -27.88 178.28 -28.74 Q 177.43 -29.59 176.15 -29.59 L 176.15 -29.59 L 170.21 -29.59 Q 168.95 -29.59 168.1 -28.74 Q 167.26 -27.88 167.26 -26.67 L 167.26 -26.67 Z M 199.03 0 L 190.16 0 L 190.16 -38.51 L 199.03 -38.51 L 207.92 -38.51 Q 210.39 -38.51 212.53 -37.57 Q 214.68 -36.63 216.28 -35.03 Q 217.88 -33.44 218.82 -31.29 Q 219.76 -29.14 219.76 -26.67 L 219.76 -26.67 Q 219.76 -24.57 219.07 -22.68 Q 218.39 -20.79 217.18 -19.26 L 217.18 -19.26 Q 218.39 -17.72 219.07 -15.82 Q 219.76 -13.91 219.76 -11.82 L 219.76 -11.82 L 219.76 0 L 210.9 0 L 210.9 -11.82 Q 210.9 -13.08 210.05 -13.94 Q 209.2 -14.8 207.92 -14.8 L 207.92 -14.8 L 199.03 -14.8 L 199.03 0 Z M 199.03 -29.59 L 199.03 -23.71 L 207.92 -23.71 Q 209.18 -23.71 210.04 -24.56 Q 210.9 -25.41 210.9 -26.67 L 210.9 -26.67 Q 210.9 -27.88 210.05 -28.74 Q 209.2 -29.59 207.92 -29.59 L 207.92 -29.59 L 199.03 -29.59 Z M 232.97 -11.82 L 232.97 -11.82 L 232.97 -38.51 L 241.89 -38.51 L 241.89 -11.82 Q 241.89 -10.61 242.73 -9.74 Q 243.58 -8.86 244.79 -8.86 L 244.79 -8.86 L 253.7 -8.86 L 253.7 0 L 244.79 0 Q 242.32 0 240.17 -0.94 Q 238.02 -1.88 236.44 -3.46 Q 234.85 -5.05 233.91 -7.2 Q 232.97 -9.35 232.97 -11.82 Z M 255.91 -11.82 L 255.91 -11.82 L 255.91 -26.67 Q 255.91 -29.14 256.85 -31.29 Q 257.79 -33.44 259.37 -35.03 Q 260.95 -36.63 263.1 -37.57 Q 265.25 -38.51 267.72 -38.51 L 267.72 -38.51 L 273.66 -38.51 Q 276.13 -38.51 278.28 -37.57 Q 280.42 -36.63 282.02 -35.03 Q 283.62 -33.44 284.56 -31.29 Q 285.5 -29.14 285.5 -26.67 L 285.5 -26.67 L 285.5 -11.82 Q 285.5 -9.35 284.56 -7.2 Q 283.62 -5.05 282.02 -3.46 Q 280.42 -1.88 278.29 -0.94 Q 276.15 0 273.66 0 L 273.66 0 L 267.72 0 Q 265.25 0 263.1 -0.94 Q 260.95 -1.88 259.37 -3.46 Q 257.79 -5.05 256.85 -7.2 Q 255.91 -9.35 255.91 -11.82 Z M 264.77 -26.67 L 264.77 -11.82 Q 264.77 -10.61 265.61 -9.74 Q 266.46 -8.86 267.72 -8.86 L 267.72 -8.86 L 273.66 -8.86 Q 274.92 -8.86 275.78 -9.74 Q 276.64 -10.61 276.64 -11.82 L 276.64 -11.82 L 276.64 -26.67 Q 276.64 -27.88 275.79 -28.74 Q 274.95 -29.59 273.66 -29.59 L 273.66 -29.59 L 267.72 -29.59 Q 266.46 -29.59 265.61 -28.74 Q 264.77 -27.88 264.77 -26.67 L 264.77 -26.67 Z M 305.43 0 L 287.68 0 L 287.68 -8.86 L 305.43 -8.86 Q 306.69 -8.92 307.55 -9.76 Q 308.41 -10.61 308.41 -11.82 L 308.41 -11.82 Q 308.41 -13.08 307.56 -13.94 Q 306.72 -14.8 305.43 -14.8 L 305.43 -14.8 L 299.49 -14.8 Q 297.02 -14.8 294.87 -15.74 Q 292.72 -16.68 291.14 -18.29 Q 289.56 -19.9 288.62 -22.05 Q 287.68 -24.2 287.68 -26.67 L 287.68 -26.67 Q 287.68 -29.14 288.62 -31.29 Q 289.56 -33.44 291.14 -35.03 Q 292.72 -36.63 294.87 -37.57 Q 297.02 -38.51 299.49 -38.51 L 299.49 -38.51 L 311.34 -38.51 L 311.34 -29.59 L 299.49 -29.59 Q 298.23 -29.59 297.38 -28.74 Q 296.54 -27.88 296.54 -26.67 L 296.54 -26.67 Q 296.54 -25.41 297.38 -24.56 Q 298.23 -23.71 299.49 -23.71 L 299.49 -23.71 L 305.43 -23.71 Q 307.9 -23.71 310.05 -22.77 Q 312.19 -21.83 313.79 -20.21 Q 315.39 -18.58 316.33 -16.44 Q 317.27 -14.29 317.27 -11.82 L 317.27 -11.82 Q 317.27 -9.35 316.33 -7.2 Q 315.39 -5.05 313.79 -3.46 Q 312.19 -1.88 310.06 -0.94 Q 307.92 0 305.43 0 L 305.43 0 Z M 319.45 -11.82 L 319.45 -11.82 L 319.45 -26.67 Q 319.45 -29.14 320.39 -31.29 Q 321.33 -33.44 322.91 -35.03 Q 324.49 -36.63 326.64 -37.57 Q 328.79 -38.51 331.26 -38.51 L 331.26 -38.51 L 349.04 -38.51 L 349.04 -29.59 L 331.26 -29.59 Q 330 -29.59 329.15 -28.74 Q 328.31 -27.88 328.31 -26.67 L 328.31 -26.67 L 328.31 -23.71 L 349.04 -23.71 L 349.04 -14.8 L 328.31 -14.8 L 328.31 -11.82 Q 328.31 -10.61 329.15 -9.74 Q 330 -8.86 331.26 -8.86 L 331.26 -8.86 L 349.04 -8.86 L 349.04 0 L 331.26 0 Q 328.79 0 326.64 -0.94 Q 324.49 -1.88 322.91 -3.46 Q 321.33 -5.05 320.39 -7.2 Q 319.45 -9.35 319.45 -11.82 Z M 371.12 0 L 362.25 0 L 362.25 -38.51 L 371.12 -38.51 L 371.12 0 Z M 382.21 -29.59 L 373.29 -29.59 L 373.29 -38.51 L 399.96 -38.51 L 399.96 -29.59 L 391.04 -29.59 L 391.04 0 L 382.21 0 L 382.21 -29.59 Z" stroke-linecap="round" />
</g>
<g transform="matrix(3.0327443611903577 0 0 3.0327443611903577 640.0153846153847 327.9360428401993)" id="logo-logo"  >
<g style=""  paint-order="stroke"   >
		<g transform="matrix(0.17057197696737042 0 0 -0.17057197696737042 -4.216401234685861 43.96155729366603)"  >
<path style="stroke: none; stroke-width: 1; stroke-dasharray: none; stroke-linecap: butt; stroke-dashoffset: 0; stroke-linejoin: miter; stroke-miterlimit: 10; fill: rgb(165,166,165); fill-rule: nonzero; opacity: 1;"  paint-order="stroke"  transform=" translate(-1600.7853783994194, -1234.5049999999999)" d="m 1905.73 1066.6 c -192.06 0 -400.28 7.51 -606.46 23.28 c -615.321 47.08 -979.141 149.99 -812.618 229.86 c 110.723 53.11 428.078 82.67 809.188 82.67 c 192.06 0 400.28 -7.51 606.46 -23.28 c 615.32 -47.08 979.14 -149.99 812.62 -229.86 c -110.72 -53.11 -428.08 -82.67 -809.19 -82.67" stroke-linecap="round" />
</g>
		<g transform="matrix(0.17057197696737042 0 0 -0.17057197696737042 -21.38747992950357 21.308520825335933)"  >
<path style="stroke: none; stroke-width: 1; stroke-dasharray: none; stroke-linecap: butt; stroke-dashoffset: 0; stroke-linejoin: miter; stroke-miterlimit: 10; fill: rgb(217,217,216); fill-rule: nonzero; opacity: 1;"  paint-order="stroke"  transform=" translate(-1500.1041858580122, -1367.3288068461331)" d="m 1331.27 1369.31 l 0.32 3.17 c 0 0 0.25 -2.08 0.57 -4.15 c 0.3 -2.06 0.6 -4.12 0.6 -4.12 z m 1.87 27.05 c -0.43 -5.26 -0.84 -10.52 -0.84 -10.52 c 0 0 0.12 4.76 0.25 9.52 c 0.19 4.77 0.76 9.5 0.76 9.5 c 2.46 11.28 2.19 5.6 1.57 -2.56 c 0.09 2.25 0.07 4.02 -0.25 4.49 c 0 0 -0.83 -5.2 -1.49 -10.43 z m 1.97 26.09 l 0.61 2.94 l 1.62 0.49 c -1.52 -5.91 -1.89 -3.33 -2.23 -3.43 z m 2.67 25.67 c 0.62 5.59 4.66 15.98 6.04 20.33 c -0.88 -7.06 -3.15 -14.28 -5.14 -22.87 c 1.99 8.59 -0.21 2.7 -0.9 2.54 z m 5.03 24.15 c -1.37 -4.16 -4.58 -15.86 -4.58 -15.86 c -0.45 3.68 2.09 9.4 4.58 15.86 z m 19.31 -187.16 l 0.84 -1.18 c 0.81 -5.53 2.35 -9.14 3.88 -13.33 c 0.79 -2.1 1.63 -4.31 2.51 -6.96 c 0.94 -2.61 2.17 -5.51 3.35 -9.19 c -1.23 2.49 -2.42 5.05 -3.57 7.62 c -1 2.65 -1.87 5.36 -2.73 8 c -1.62 5.33 -3.44 10.33 -4.28 15.04 z m 1.31 -1.86 l -0.47 0.68 l -0.16 1.91 c 0.2 -0.79 0.38 -1.56 0.63 -2.59 z m -0.87 5.51 c 0.09 -1.13 0.16 -1.96 0.24 -2.92 c -2.07 8.17 -2.48 5.01 -4.1 15.05 z m -19.39 135.17 c 1.74 9.04 3.31 19.1 6.4 28.76 c 5.03 19.83 13.59 38.59 19.66 53.07 c 8.9 18.91 20.87 36.58 35.67 54.7 c 3.18 3.79 6.9 8.11 11.23 12.42 c 4.58 3.87 9.48 8.22 14.85 12.17 c 10.98 7.43 23.34 14.21 35.5 18.25 c 3.31 0.62 6.6 1.25 9.92 1.88 c 4.74 0.98 10.77 2.23 16.13 3.34 c 5.33 1.03 9.98 0.94 11.64 0.91 c 4.45 -0.1 8.87 -0.12 13.2 -1.05 c 4.34 -0.75 8.67 -1.22 12.9 -2.09 c 8.35 -2.48 16.67 -4.4 24.29 -8.24 c 7.9 -2.92 14.85 -7.81 21.81 -11.88 c 3.34 -2.32 6.44 -4.99 9.56 -7.44 c 3.11 -2.47 6.16 -4.89 8.76 -7.84 c 33.94 -32.82 56.09 -78.64 65.74 -124.33 c 0.75 -1.23 1.41 -2.33 1.41 -2.33 c 0.61 -5.1 1.22 -9.72 1.01 -11.23 c 0.45 -2.89 0.94 -5.76 1.29 -8.63 c 0.47 -2.31 0.87 -4.57 1.13 -6.67 c 0.65 -4.8 0.88 -9.02 0.56 -12.54 c 1.12 -5.84 0.99 -1.98 1.67 -5.33 c 0.47 -8.91 0.75 -18.59 0.86 -28.45 c 0.36 -3.02 0.63 -7.36 0.57 -17.03 l -0.6 -0.32 c -0.11 -7.33 -0.31 -14.64 -0.7 -21.74 c -0.17 -5.61 -0.95 -11.02 -1.31 -16.26 c -0.52 -5.21 -0.61 -10.3 -1.4 -14.91 c -1.35 -9.26 -1.91 -17.48 -2.78 -23.44 c -1.82 -3.71 -3.4 -7.74 -4.85 -12.01 c -0.69 -2.18 -1.38 -4.35 -2.08 -6.54 c -0.8 -2.18 -1.6 -4.38 -2.42 -6.6 c -1.58 -4.47 -3.2 -9.02 -4.8 -13.54 c -1.81 -4.41 -3.92 -8.65 -6.04 -12.74 c -9.81 -19.54 -24.62 -39.98 -34.79 -52.98 c -15.85 -21.27 -33.86 -33.6 -51.05 -40.42 c -1.06 -0.5 -2.06 -1.21 -3.14 -1.63 c -0.97 -0.26 -1.88 -0.49 -2.84 -0.74 l -1.41 -0.57 c -19.49 -5.96 -37.22 -5.36 -54.12 -3.06 c 1.94 2.71 3.75 5.68 8.73 8.22 c 4.96 2.43 13.07 4.72 27.08 9.7 c 4.41 1.6 8.91 3.47 13.41 5.48 l 0.73 0.43 c 2.65 1.73 5.47 3.29 8.28 5.23 c 2.73 2.13 5.55 4.34 8.44 6.6 c 7.85 3.36 18.18 10.98 27.66 20.24 c 1.86 1.79 3.57 3.77 5.29 5.73 l 1.72 2.82 c 2.05 2.19 5.29 5.08 7.99 8.76 c 2.98 4.17 5.91 8.26 8.27 11.58 c 12.51 21.74 21.57 44.69 28.1 67.96 c 6.36 23.33 10.77 47 11.91 71.13 c 2.34 37.69 -1.44 76.63 -10.12 111.44 c -1.29 2.39 -3.4 5.35 -5.57 9.31 c -2.32 3.88 -4.25 9.09 -7.16 14.88 c -7.13 16.44 -18.14 33.69 -29.53 48.41 c -11.27 15.1 -23.94 26.03 -32.35 35.22 c -4.89 1.74 -9.6 4.47 -14.03 6.39 c -4.49 1.76 -8.37 3.67 -11.01 5.28 c -7.31 3.87 -15.55 6.34 -24.15 7.69 l -0.42 0.06 c -18.44 1.52 -37.28 -2.5 -54.24 -8.85 c -11.59 -5.44 -22.58 -12.6 -32.37 -20.96 c -19.3 -14.9 -34.94 -38.95 -44.9 -55.95 c -1.57 -2.49 -3.2 -4.85 -4.57 -7.34 c -1.29 -2.59 -2.54 -5.1 -3.76 -7.54 c -2.39 -4.99 -4.87 -9.68 -6.55 -14.73 c -0.45 -1.22 -0.89 -2.38 -1.34 -3.58 l -0.69 -2.16 c -0.38 -1.46 -0.95 -3.12 -1.4 -4.66 l -0.46 -0.03 c -0.52 -1.37 -1.04 -2.78 -1.55 -4.15 c -0.47 -1.59 -0.98 -3.16 -1.45 -4.75 c -0.3 -1.33 -0.59 -2.64 -0.92 -4 c -1.03 -4.62 -2.33 -9.29 -3.17 -13.8 c -1.46 -9.12 -2.64 -16.99 -2.43 -20.06 c -2.89 -5.91 -0.49 6.21 1.8 16.86 c -1.22 -5.55 -2.56 -11.64 -3.92 -17.86 c -0.91 -6.35 -1.84 -12.83 -2.74 -19.07 l -0.08 -1.76 c 0.85 4.94 2.14 8.64 1.96 14.43 c 0.99 2.92 1.27 1.68 1.2 -2.19 c -2.6 -11.74 -2.37 -34.05 -3.91 -35.55 c 0.14 -2.45 0.39 -4.7 0.82 -6.64 l -1.16 -6.15 l 0.31 -2.58 l -0.51 2.46 c -0.03 -15.73 1.3 -32.64 2.23 -44.5 c -0.17 -1.42 -0.34 -2.45 -0.5 -3.25 c 1.23 -4 0.34 2.66 0.77 4.37 c 0.76 -5.42 1.41 -10.15 1.95 -13.99 c 0.66 -3.78 0.99 -6.69 0.78 -8.53 c 0 0 -1.17 4.93 -2.33 9.86 c -0.5 2.99 -0.97 5.85 -1.29 7.79 c -0.27 -1.09 -0.52 -1.48 -0.77 -1.59 c 0.18 -6.41 0.41 -11.86 1.23 -13.75 c 2.38 -8.91 4.58 -16.35 7.47 -22.66 c 1.48 -3.55 3.02 -6.42 4.48 -9.56 l -0.02 0.51 c -2.43 6.77 -5.47 16.6 -6.37 20.45 l 4.78 -11.68 l 0.56 -4.55 c 0.6 -1.81 1.02 -2.59 1.32 -2.89 l 0.23 -0.12 l 0.38 0.15 l 0.2 -0.82 l 0.64 -0.92 l -0.21 -0.67 l 0.45 -1.57 c 0.65 -1.93 1.31 -3.86 1.31 -3.86 l -0.25 -0.13 c 1.09 -1.71 2.19 -3.4 3.36 -5.35 c 1.96 -3.18 3.85 -7.36 7.17 -13.43 l 0.09 -0.52 c 2.81 -4.71 5.83 -9.66 9.31 -15.3 c 0.87 -1.12 2.76 -5.5 4.48 -9.91 l 0.55 -0.95 c 1.54 -3.22 2.27 -5.03 2.45 -5.98 c 0.57 -1.36 0.96 -2.37 0.86 -2.59 c -1.17 0.63 -2.86 2.15 -4.88 4.22 c -2.02 2.08 -3.98 5.07 -6.22 8.08 l -1.59 2.29 c 0.7 -1.23 1.24 -2.16 1.24 -2.16 l -0.74 0.96 l -0.54 1.26 c -1.7 2.35 -3.47 4.7 -4.96 7.16 c -1.94 3.29 -3.79 6.38 -5.38 8.88 c -2.32 2.37 -3.87 3.95 -6.1 6.94 c -1.69 2.44 -1.58 0.22 -0.69 -2.98 c 1 -3.14 2.64 -7.31 3.25 -9.08 c -1.65 2.05 -3.46 4.66 -5.41 7.73 c -1.81 3.15 -3.52 6.91 -5.43 11 c -4.06 8.05 -7.13 18.29 -10.62 29.18 c -6.08 22.18 -9.6 48.41 -10.75 71.92 c -0.03 7.29 1.8 12.07 1.77 19.28 c -0.48 3.41 -0.57 6.81 -0.72 10.23 c 0.54 7.21 1.34 17.85 1.64 21.72 c 0.28 6.83 0.62 15.32 2.15 24.44 z m 22.82 32.83 c 0.85 2.4 1.41 4.6 2.06 6.88 h 0.03 c -0.6 -2.11 -1.27 -4.33 -2.09 -6.88 z m -9.15 46.41 c -0.54 -2.73 -3.38 -8.1 -4.94 -12.21 c 0 0 0.62 2.38 1.31 4.74 c 0.69 2.37 1.39 4.75 1.39 4.75 c 0.79 1.36 0.67 0 2.24 2.72 z m 137.02 -362.89 c 2.51 -1.38 -1.68 -1.21 -7.07 -0.76 c -5.52 1.53 7.94 -1.53 4.14 0.8 c 1.34 -0.17 2.41 -0.28 2.93 -0.04 z m -3.16 0.22 l 0.23 -0.18 c -0.98 0.13 -2.07 0.29 -3.42 0.37 l 0.08 0.11 z m 4.47 2.12 c -2.79 -0.51 -7.64 -0.48 -7.58 -1.82 l -6.54 0.63 c 6.3 0.01 8.09 0.86 11.02 1.39 c -3.23 0.58 -8.47 1 -7.18 -0.04 l -4.52 1.58 z m -13.6 -3.39 c -1.71 -2.28 -7.39 1.33 -13.62 1.04 l -2.24 0.95 c 0 0 3.99 -0.56 7.97 -1.12 c 1.96 -0.28 3.93 -0.58 5.41 -0.79 c 1.46 -0.2 2.48 -0.08 2.48 -0.08 z m -22.69 11.16 c 0.03 -0.29 -1.22 -0.06 -2.62 0.24 c 0.35 0.15 1.02 0.16 2.62 -0.24 z m -2.62 0.24 c -1.44 -0.61 4.28 -4.33 -6.38 -0.58 c 3 -1.09 6.13 -1.55 5.04 -0.24 l -3.07 1.1 c -0.65 0.85 2.14 0.18 4.41 -0.28 z m -68.83 44.96 l 0.21 -0.32 l -0.03 0.02 c -4.27 1.71 -9.22 12.26 -14.85 18.76 l 1.17 2.34 c 2.6 -4.84 4.45 -7.47 6.35 -10.21 c 1.96 -2.9 3.86 -5.72 7.15 -10.59 z m -52.46 171.42 c -0.53 5.74 -0.11 12.88 0.58 16.13 c -0.33 -5.91 0.27 -11.1 -0.58 -16.13 z m -0.52 28.37 c -0.06 -5.48 -0.03 -10.4 0.42 -11.15 l -1 -6.22 c -0.36 -0.2 0.3 9.2 0.58 17.37 z m 0.68 -59.84 c -0.34 3.64 -0.67 8.07 -1 10.75 c -0.18 2.69 -0.41 3.63 -0.99 0.26 c -0.06 11.88 1.47 0.99 2.17 8.84 c -0.43 -3.22 -0.27 -6.09 0.05 -8.84 c 0.5 -2.75 1.13 -5.37 1.49 -8.2 c -0.56 -0.44 -3.54 16.05 -1.72 -2.81" stroke-linecap="round" />
</g>
		<g transform="matrix(0.17057197696737042 0 0 -0.17057197696737042 -201.75990987192196 -15.462066506717804)"  >
<path style="stroke: none; stroke-width: 1; stroke-dasharray: none; stroke-linecap: butt; stroke-dashoffset: 0; stroke-linejoin: miter; stroke-miterlimit: 10; fill: rgb(217,217,216); fill-rule: nonzero; opacity: 1;"  paint-order="stroke"  transform=" translate(-442.5059999999999, -1582.9299999999998)" d="m 437.227 1583.84 l -0.086 0.02 l -0.059 0.02 c 1.078 -0.19 0.789 -0.11 0.488 -0.01 l 0.821 -0.14 l 0.668 -0.05 l 0.246 -0.09 l 0.343 0.02 l 1.836 -0.35 c 1.266 -0.23 2.805 -0.51 4.145 -0.75 l 0.5 -0.13 l 0.887 -0.13 l 0.394 -0.09 l -0.394 0.09 l 0.027 0.03 l 0.578 -0.12 l -0.016 -0.05 l 0.325 -0.06 l -0.325 0.06 l -0.324 0.06 l -0.574 0.1 l 0.324 -0.08 l -0.586 0.08 c -0.984 0.18 -0.558 0.18 -1.465 0.3 l 0.239 -0.05 l -0.914 0.11 c 1.144 -0.24 -0.907 0.11 0.648 -0.19 c 0.723 -0.21 -0.527 -0.07 1.106 -0.46 c -1.071 0.18 -3.129 0.55 -4.446 0.79 l 0.575 -0.12 l -0.575 0.08 l -0.324 0.1 l -1.473 0.29 l -0.586 0.06 l -0.226 0.05 l -1.836 0.62 l 0.059 -0.01" stroke-linecap="round" />
</g>
		<g transform="matrix(0.17057197696737042 0 0 -0.17057197696737042 -200.82690411376458 -14.957536756237971)"  >
<path style="stroke: none; stroke-width: 1; stroke-dasharray: none; stroke-linecap: butt; stroke-dashoffset: 0; stroke-linejoin: miter; stroke-miterlimit: 10; fill: rgb(217,217,216); fill-rule: nonzero; opacity: 1;"  paint-order="stroke"  transform=" translate(-447.97696638145294, -1579.9720371039411)" d="m 456.316 1578.69 l -1.238 0.24 c -1.617 -0.09 -1.164 -0.63 -0.402 -1.25 l 0.297 -0.23 l 0.148 -0.12 l 0.082 -0.06 l 0.012 -0.02 h 0.008 l -13.727 2.59 v 0 l -0.004 0.01 l -0.035 0.03 l -0.555 0.47 l -0.281 0.78 l -4.598 0.84 c 2.836 -0.25 4.547 -0.4 7.879 -0.7 l 0.789 -0.24 c 2.563 -0.39 4.231 -0.49 3.668 -0.25 l -1.187 0.21 c -0.703 -0.05 -0.387 0.09 -3.68 0.63 l -0.613 0.08 l -0.582 0.14 l 0.609 -0.09 l -1.84 0.32 l -0.121 0.07 c -3.254 0.63 -6.058 1.18 -9.703 1.9 c 0.457 -0.06 4.043 -0.76 2.867 -0.44 l -1.183 0.21 l 2.14 -0.29 l -1.546 0.34 l 1.101 -0.1 l 2.426 -0.44 c -0.871 0.34 1.976 0.04 0.223 0.56 c 2.343 -0.41 -0.75 0.28 1.238 0 l 2.582 -0.52 c 3.473 -0.77 1.59 -0.68 2.805 -1.09 l 1.378 -0.25 l 0.915 -0.06 l 2.417 -0.44 c 8.473 -1.68 -1.878 0.02 -0.64 -0.28 c 2.332 -0.58 5.187 -0.88 4.848 -0.88 c 3.253 -0.47 5.98 -1.26 8.796 -1.86 c 5.598 -1.23 2.692 -1.08 2.493 -1.29 c -6.067 0.75 0.003 -0.92 -0.176 -1.26 c 0.34 -0.16 -1.789 0.14 -3.063 0.26 l -0.23 0.02 l -0.016 0.01 c -8.191 1.54 -16.355 3.07 -24.492 4.61 l 0.023 -0.01 l 0.055 -0.01 l 0.094 -0.01 l 0.316 -0.01 l 0.11 0.05 c -0.211 0.09 -1.043 0.28 -2.922 0.66 l -1.465 0.61 l -1.383 0.25 c -0.39 0.4 2.992 0.12 4.063 0.22 c 0.332 0.07 3.906 -0.56 0.043 0.22 c -2.496 0.73 2.777 0.05 3.281 0.22 c 1.23 -0.24 2.531 -0.5 3.195 -0.62 c -1.562 0.16 1.496 -0.57 4.848 -1.2 l -0.317 0.11 l 2.704 -0.6 l -1.071 0.15 l 2 -0.4 c 1.18 -0.28 4.114 -0.96 6.114 -1.43 c -0.918 0.1 -1.122 0.06 0.503 -0.36" stroke-linecap="round" />
</g>
		<g transform="matrix(0.17057197696737042 0 0 -0.17057197696737042 -171.32523808689314 -0.281260364683277)"  >
<path style="stroke: none; stroke-width: 1; stroke-dasharray: none; stroke-linecap: butt; stroke-dashoffset: 0; stroke-linejoin: miter; stroke-miterlimit: 10; fill: rgb(217,217,216); fill-rule: nonzero; opacity: 1;"  paint-order="stroke"  transform=" translate(-620.9569999999997, -1493.9188610124925)" d="m 609.434 1491.38 l -0.856 3.79 c -0.969 4.46 -1.933 8.92 -2.898 13.35 c -1.172 7.77 -3.649 19.4 -7.719 33.89 c -4.113 14.44 -9.754 31.87 -18.172 50.25 c 0.219 0.09 2.254 -2.78 -3.855 10.01 c -7.395 14.07 -13.243 21.63 -17.25 26.38 c -4.055 4.7 -6.301 6.8 -8.164 8.53 c -1.864 1.73 -3.372 3.12 -6.493 5.31 c -1.578 1.03 -3.547 2.33 -6.281 3.49 c -2.785 1.23 -5.941 2.25 -11.367 3.07 c 1.598 -0.22 3.238 -0.5 4.914 -0.82 c 1.445 -0.38 2.93 -0.67 4.359 -1.2 c 2.883 -0.98 5.727 -2.3 8.286 -3.92 c 5.195 -3.08 9.296 -7.08 11.683 -9.22 c 0 0 -0.898 0.89 -2.476 2.46 c -1.618 1.46 -3.918 3.61 -6.903 5.63 c -5.992 4.39 -14.019 7.35 -24.547 7.96 c -9.945 0.79 -19.355 -1.34 -25.672 -4.54 c -6.359 -3.12 -9.941 -6.53 -9.941 -6.53 c 3.828 3.77 7.922 6.36 9.488 7.49 c 1.621 1 0.403 1.25 -5.367 -2.02 c 3.137 2.6 -1.277 1.34 -7.172 -2.79 c -5.945 -4 -12.465 -11.67 -15.765 -16.2 c 7.89 14.17 18.121 21.89 23.066 24.75 c -1.004 -0.27 -4.867 -2.14 -9.746 -6.27 c -4.875 -4.1 -10.551 -10.66 -15.27 -19.02 c 0.602 1.33 1.274 2.81 2.735 5.29 c -1.461 -2.48 -2.133 -3.96 -2.735 -5.29 c -6.265 -10.91 -10.882 -24.61 -13.461 -37.55 c 1.29 7.32 3.34 14.47 2.067 11.02 c 0 0 3.523 13.59 10.226 25.69 c 3.282 6.07 7.301 11.65 10.735 15.42 c 3.402 3.8 6.043 5.92 6.043 5.92 c 1.258 1.22 -0.188 0.24 -2.641 -1.93 c 0 0 2.582 2.39 5.438 4.4 c 2.82 2.06 5.886 3.68 5.886 3.68 l -8.476 -6.41 c -2.582 -2.7 2.719 2.3 8.922 5.58 c 6.14 3.39 10.406 4.59 13.773 5.53 c 3.395 0.88 5.992 1.36 9.445 1.7 c 0 0 7.086 0.38 14.098 -0.81 c 3.539 -0.52 6.973 -1.34 9.402 -2.13 c 2.469 -0.82 4.036 -1.56 4.036 -1.56 c 2.261 -1.34 -0.688 0.14 -6.055 1.44 c -5.418 1.28 -13.641 2.21 -20.496 1.7 c -6.918 -0.4 -12.473 -2.18 -13.645 -2.67 c -1.152 -0.74 1.754 1.08 12.805 1.88 c 0 0 3.402 0.33 6.855 0.23 c 3.446 -0.05 6.907 -0.47 6.907 -0.47 c 5.234 -0.79 10.449 -1.92 15.449 -4.5 c 5.008 -2.48 9.719 -5.93 13.848 -9.82 c 8.289 -7.8 14.214 -17.03 17.711 -23.34 c 6.242 -8.85 12.832 -23.06 17.48 -35.57 c 4.711 -12.5 7.883 -23.15 9.199 -24.69 c 10.071 -31.02 17.727 -66.95 23.293 -104.06 c 2.778 -18.57 5.055 -37.44 6.781 -56.23 c 0.872 -9.38 1.59 -18.75 2.168 -28.04 c 0.25 -5.04 0.508 -10.06 0.762 -15.04 c 0.149 -5.59 0.309 -11.14 0.461 -16.66 l 0.883 -0.27 l 1.223 0.14 l 2.425 0.29 l 4.832 0.58 c 3.231 0.42 6.446 0.84 9.641 1.25 c 5.547 0.69 11.027 1.38 16.437 2.04 c 10.364 1.23 20.473 2.26 30.247 3.13 c 14.488 -0.36 14.632 -1.94 50.55 -2.81 c 7.164 0.23 18.047 0.21 14.371 0.52 c 0 0 6.286 -0.31 12.575 -0.63 c 6.273 -0.43 12.543 -0.87 12.543 -0.87 c -14.356 0.85 -32.325 1.14 -39.489 0.64 c 39.489 -0.69 -17.906 -0.81 -14.367 -1.75 c 0 0 13.465 0.2 26.902 -0.17 c 13.438 -0.3 26.825 -1.21 26.825 -1.21 l -6.317 0.07 c -24.117 0.99 -48.324 0.59 -72.465 -0.9 c -12.07 -0.75 -24.132 -1.77 -36.168 -3.06 l -18.894 -2.23 c -9.758 -1.26 -19.66 -2.61 -28.906 -3.16 c -0.215 10.1 -0.379 20.37 -0.883 30.48 c -0.359 6.82 -0.758 12.49 -1.238 18.79 c -0.973 12.32 -2.196 24.62 -3.657 36.91 c -2.918 24.55 -6.714 49 -11.535 73.16 l -0.433 2.52" stroke-linecap="round" />
</g>
		<g transform="matrix(0.17057197696737042 0 0 -0.17057197696737042 2.471537344968567 2.6023941458733475)"  >
<path style="stroke: none; stroke-width: 1; stroke-dasharray: none; stroke-linecap: butt; stroke-dashoffset: 0; stroke-linejoin: miter; stroke-miterlimit: 10; fill: rgb(217,217,216); fill-rule: nonzero; opacity: 1;"  paint-order="stroke"  transform=" translate(-1639.9994598981216, -1477.0109469694812)" d="m 1627.46 1589.56 l -1.64 0.16 c 19.78 -28.4 33.88 -61.27 42.45 -95.75 c 8.66 -34.51 12.17 -70.53 12.19 -106.73 c 0.02 -36.24 -3.48 -72.72 -9.02 -109.1 c -2.63 -18.12 -6.32 -36.55 -8.69 -54.25 c -0.56 -3.37 -0.28 -6.59 1.83 -9.09 c 1.01 -1.27 2.02 -2.19 3.48 -3.26 c 1.51 -1.14 3.24 -2.15 5.05 -3.09 c 7.32 -3.74 15.81 -6.24 24.35 -8.3 c 34.58 -7.81 71.14 -10.22 107.7 -12.42 c 36.66 -1.99 73.76 -2.91 111.18 -3.52 c 74.89 -1.28 150.92 -1.05 227.99 2.25 c 77.04 3.22 155.06 8.7 233.55 17.69 c 39.2 4.56 78.63 9.92 117.7 17.16 c 38.95 7.51 77.49 18.57 115.51 31.75 c 38.01 13.23 75.54 28.6 112.37 45.85 c 9.12 4.28 18.53 8.85 27.22 13.29 l 4.31 2.28 c 1.37 0.8 2.81 1.95 3.02 3.68 c 0.19 1.68 -0.39 3.31 -0.87 4.89 l -1.89 5.61 c -7.05 20.99 -8.7 43.36 -8.12 64.92 c 0.35 10.88 1.21 21.91 4.04 33.05 c 2.66 10.98 8.59 22.69 17.92 30.28 c 9.06 7.55 18.97 11.8 26.42 17.16 c 6.46 4.41 6.59 10.9 3.01 20.24 c -7.18 17.74 -20.34 35.68 -31.76 51.71 l -2.84 3.87 l -0.71 0.96 l -1.1 -0.08 l -2.3 -0.48 l -13.01 -2.69 l -34.12 -7.03 c -14.63 15.44 -29.41 31.05 -44.2 46.67 l 36.3 19.95 l 10.27 5.65 l -0.1 0.84 l -0.99 0.92 l -1.96 1.83 l -3.96 3.6 c -4.72 4.24 -15.61 13.58 -24.46 20.74 c -9.26 7.53 -18.69 14.87 -28.24 22.02 c -38.24 28.59 -78.43 54.65 -120.48 76.62 c -10.53 5.45 -21.18 10.62 -31.97 15.39 c -5.39 2.39 -10.82 4.68 -16.28 6.85 l -8.17 3.15 c -0.96 0.41 -1.37 0.45 -2.79 0.63 l -4.27 0.55 c -22.88 2.58 -46.43 1.77 -69.82 -0.21 c -46.85 -4.24 -93.52 -13.35 -139.42 -24.66 c 0.29 5.25 0.58 10.48 0.87 15.71 c 88.99 -33.6 177.53 -67.03 265.59 -100.28 l -5.25 -15.88 c -78.87 26.02 -156.69 51.7 -233.96 77.19 l 22.5 -12.49 c -31.17 10.62 -62.85 21.42 -95.91 32.69 c -6.69 1.12 -13.41 2.24 -20.14 3.37 l -10.56 1.79 l -5.12 0.88 l -0.5 0.06 l -1.26 0.1 l -2.66 0.18 c -14.18 0.99 -28.43 1.84 -42.73 2.51 c -28.6 1.33 -57.42 2 -86.3 1.82 c -57.75 -0.39 -115.91 -3.87 -172.72 -12.81 l -16.42 -2.77 c -3.71 -0.68 -7.48 -1.42 -11.29 -2.25 l -5.77 -1.32 l -1.45 -0.36 l 1.06 -0.75 l 2.36 -1.52 l 9.65 -6.26 c 22.42 -14.32 44.68 -28.53 66.7 -42.59 c 47.93 -30.65 94.8 -60.62 139.95 -89.5 l -5.55 -9.98 c -18.36 10.7 -34.99 20.37 -51.37 29.9 l 51.94 -28.82 l 4.4 7.9 l -35.22 21.53 c 9.74 -6.41 21.37 -14.05 34.53 -22.7 l -3.1 -5.58 c -46.9 27.74 -112.87 66.03 -180.98 105.16 c -17.04 9.75 -34.2 19.59 -51.22 29.34 c -17.13 9.51 -33.5 20.32 -51.42 26.49 c -35.4 13.31 -70.98 19.58 -102.27 22.7 l 13.98 -2.88 c 48.86 -6.91 71.32 -15.87 80.03 -18.68 c 8.66 -3.24 3.62 -1.47 -4.97 1.17 c -8.58 2.65 -20.86 5.68 -26.22 6.47 c -5.4 0.7 -3.63 0.08 15.18 -6.13 c 0 0 8.11 -2.52 16.03 -5.49 c 7.95 -2.93 15.66 -6.37 15.66 -6.36 c 0 0 -4.6 1.78 -9.28 3.37 c -4.69 1.52 -9.39 3.05 -9.39 3.05 c 0 0 -7.95 2.88 -16.06 5.35 c -8.1 2.49 -16.34 4.58 -16.34 4.58 c 1.78 -0.81 1.91 -1.23 5.45 -2.5 c 3.74 -1.22 10.56 -3.44 25.58 -8.33 c 0 0 -10.64 3.57 -21.53 6.39 c -10.87 2.88 -21.91 5.08 -21.91 5.08 c -23.91 4.01 -42.11 5.08 -55.55 5.45 c -13.45 0.33 -22.19 -0.18 -27.51 -0.78 c -10.65 -1.33 -7.67 -3.11 -1.76 -5.21 c -12.53 0.59 -12.25 1.61 -22.23 2.45 c -4.99 0.41 -12.57 0.72 -25.61 0.36 c -13.05 -0.43 -31.58 -1.49 -58.32 -5.18 l 14.12 0.4 c 0 0 -29.36 -2.56 -58.57 -7.45 c -29.22 -4.72 -58.16 -11.53 -58.16 -11.53 c 0 0 -12.97 -3.66 -25.94 -7.33 c -13 -3.55 -25.99 -7.11 -25.99 -7.11 c -21.07 -4.59 -38.53 -8.14 -56.28 -11.45 c -17.77 -3.26 -35.8 -6.44 -58.34 -9.03 l -13.88 1.36 c -50.67 -4.05 -103.98 2.77 -157.5 11.07 c -53.55 8.63 -108.999 17.68 -163.69 34.47 c -27.407 8.42 -53.469 19.64 -79.258 28.75 c -12.875 4.58 -26.074 8.91 -38.864 12.67 c -12.308 3.51 -25.179 5.32 -38.113 6 c -25.93 1.31 -52.027 -1.76 -77.219 -6.68 c -25.226 -4.98 -49.671 -11.91 -73.105 -19.67 c -10.512 -2.72 -24.602 -7.22 -41.398 -13.33 c -8.403 -3.05 -17.473 -6.5 -27.165 -10.27 c -4.863 -1.9 -9.882 -3.85 -15.035 -5.86 c -2.918 -1.1 -4.394 -1.7 -6.398 -2.8 c -1.906 -1.04 -3.801 -2.3 -5.664 -3.76 c -7.465 -5.9 -14.258 -14.91 -20.117 -25.19 c -5.895 -10.33 -10.957 -21.99 -15.469 -34.3 c -8.985 -24.65 -15.883 -51.89 -21.305 -79.58 c 0 0 1.426 12.07 3.43 24.11 c 1.937 12.04 4.488 23.96 4.488 23.96 c 3.574 14.84 8.445 32.05 16.063 50.11 c 3.828 9 8.375 18.21 14.144 26.9 c 5.754 8.61 12.863 16.87 21.731 21.95 c 4.07 2.36 10.062 4.22 15.589 6.52 c 5.586 2.18 11.262 4.4 17.016 6.65 c 11.496 4.44 23.332 8.88 35.473 13.17 c 24.293 8.56 49.863 16.58 76.379 22.84 c 26.492 6.22 53.988 10.77 81.586 11.33 c 13.785 0.25 27.574 -0.56 41.019 -2.89 c 6.754 -1.16 13.262 -2.77 19.852 -4.78 c 6.675 -2.02 13.316 -4.11 19.898 -6.29 c 26.379 -8.53 51.711 -19.17 77.227 -27.9 c 25.488 -8.72 50.758 -15.02 74.718 -20.06 l -7.195 3.08 c -20.012 4.76 -37.101 9.68 -55.129 15.71 c -18.039 5.96 -36.824 13.53 -60.691 22.08 l -11.672 6.92 c 21.039 -4.72 51.562 -17.11 88.004 -27.44 c 36.492 -10.37 79.08 -19.02 121.36 -26.77 c 42.32 -7.67 84.27 -14.95 120.36 -18.18 c 36.08 -3.44 66.18 -1.83 83.73 0.55 c 37.25 5.25 49.34 9.37 48.25 9.51 c -1.13 0.43 -15.66 -1.93 -32.64 -3.87 c -33.98 -4.39 -77.73 -3.34 -42.25 -2.7 c -20.44 -0.55 -33.62 0.49 -40.9 1.15 c -7.29 0.73 -8.68 1.26 -5.56 1.48 c 6.23 0.54 30.52 -0.28 61.63 3.22 c 31.11 3.3 69.05 11.86 103.5 20.7 c 34.59 8.7 65.12 17.53 82.4 22.31 c 35.96 9.45 80.88 18.66 132.32 22.75 c 51.31 3.93 109.42 3.05 169.22 -11.06 c 14.92 -3.56 29.91 -8 44.83 -13.71 c 7.53 -2.99 14.74 -5.81 22.52 -10.07 c 6.67 -3.76 13.37 -7.55 20.09 -11.34 c 26.84 -15.21 54.02 -30.6 81.24 -46.02 c 54.38 -30.92 108.91 -61.94 161.22 -91.67 c -5.39 -9.7 -10.78 -19.39 -16.11 -28.99 c -66.33 41.63 -128.94 80.92 -182.82 114.72 c -3.83 2.47 -7.68 4.95 -11.53 7.44 c -5.3 3.46 -10.62 6.93 -15.95 10.42 c -13.6 8.97 -27.29 18 -41.06 27.08 l -10.24 6.73 l -5.11 3.37 l 0.68 0.53 l 1.52 0.38 l 3 0.78 c 7.82 2.01 15.67 4.02 23.55 6.04 c 7.77 2 15.67 4 23.95 5.79 c 8.09 1.79 17.04 3.53 24.81 4.91 c 38.87 6.72 77.44 10.67 117.37 13.09 c 39.76 2.38 80.19 3.02 120.99 2.25 c 20.4 -0.39 40.9 -1.12 61.46 -2.2 l 15.44 -0.86 l 7.88 -0.48 c 0.95 0.01 2.51 -0.31 2.97 -0.38 l 1.9 -0.3 l 3.8 -0.61 c 10.47 -1.66 20.96 -3.32 31.47 -4.98 c 102.22 -33.44 206.08 -67.41 308.37 -100.86 c -2.98 -9.02 -5.96 -18.03 -8.92 -26.99 c -90.65 33.85 -180.07 67.24 -265.94 99.3 l -46.96 17.54 l 48.61 12.05 c 56.37 13.98 111.98 24.6 167.4 27.23 c 13.87 0.55 27.74 0.54 41.67 -0.59 c 3.48 -0.28 6.96 -0.62 10.46 -1.07 l 6.7 -0.94 l 6.25 -2.34 c 6.35 -2.39 12.56 -4.96 18.69 -7.6 c 24.49 -10.6 47.4 -22.73 69.12 -35.39 c 32.08 -18.57 66.37 -41.7 100.66 -68.59 c 8.56 -6.73 17.14 -13.72 25.65 -20.95 c 4.42 -3.84 8.85 -7.7 13.3 -11.57 l 9.1 -8.23 c 3.64 -3.41 7.62 -6.8 10.52 -10.27 l 4.72 -5.16 c 1.09 -0.91 0.93 -1.62 0.99 -2.36 l 0.16 -2.21 c 0.07 -1.46 0.35 -2.96 0.25 -4.4 l -4.02 -3.73 c -5.48 -5.06 -11.86 -10.43 -18.71 -14.94 c -3.4 -2.27 -6.88 -4.34 -10.3 -6.2 l -1.67 -0.89 l -0.41 -0.2 l -0.82 -0.39 l -3.55 -1.7 l 1.8 -2.14 l 0.96 -1.14 l 0.5 -0.58 l 1.08 -1.21 l 8.58 -9.31 l 2.51 -2.77 l 1.1 -1.27 l 1.55 0.24 l 3.31 0.6 l 11.77 2.26 c 9.45 1.83 18.85 3.66 28.19 5.47 l 4.93 0.98 l 2.31 0.07 l 1.51 -2.08 l 6.02 -8.3 c 2.85 -4.01 5.68 -8.02 8.51 -12 c 4.61 -6.66 9.12 -13.37 13.43 -20.28 c 4.31 -6.92 8.44 -13.98 12.08 -21.78 c 1.8 -3.92 3.47 -8.05 4.78 -12.71 c 1.21 -4.6 2.29 -10.13 1.38 -16.67 c -0.84 -6.26 -3.83 -12.03 -8.08 -16.41 c -2.1 -2.15 -4.16 -3.82 -6.12 -5.13 c -1.92 -1.33 -3.4 -2.22 -5.09 -3.26 c -6.55 -3.98 -12.6 -7.17 -17.07 -10.56 c -4.5 -3.38 -7.5 -6.93 -9.84 -11.48 c -2.34 -4.52 -3.89 -9.95 -4.92 -15.61 c -2.04 -11.38 -2.22 -23.51 -1.87 -34.74 c 0.4 -11.21 1.68 -21.51 3.82 -30.61 c 1.07 -4.55 2.35 -8.78 3.81 -12.81 c 0.91 -2.38 1.79 -4.72 2.66 -7.01 c 1.45 -3.85 2.83 -7.71 3.4 -11.42 c 0 0 0.54 -2.48 -0.02 -6.91 c -0.55 -4.51 -3.36 -11.03 -10.6 -15.71 c -1.8 -1.22 -3.93 -2.32 -6.13 -3.48 c -1.7 -0.88 -3.5 -1.8 -5.36 -2.76 c -2.69 -1.35 -5.6 -2.82 -8.71 -4.38 c -6.24 -3 -13.28 -6.38 -20.96 -10.07 c -30.81 -14.45 -72.53 -32.13 -115.42 -46.88 c -42.83 -14.89 -86.91 -26.44 -120.68 -32.47 c -33.35 -5.99 -55.57 -8.99 -55.57 -8.99 l 7.77 -0.36 c -86.64 -12.47 -175.77 -19.7 -265.78 -23.97 c -89.93 -4.33 -181.08 -4.54 -270.88 -2.33 c -45 1.07 -89.86 2.52 -134.61 6.13 c -22.4 1.88 -44.73 4.2 -67.29 8.48 c -11.31 2.25 -22.63 4.84 -34.47 9.55 c -2.96 1.19 -5.99 2.61 -9.08 4.31 c -1.53 0.85 -3.12 1.84 -4.7 2.89 l -2.41 1.77 l -2.89 2.47 c -3.72 3.48 -6.73 7.71 -8.53 12.48 c -1.88 4.71 -2.06 10.14 -1.54 15 c 0.8 7.3 1.72 12.23 2.68 18.03 l 2.86 16.51 c 1.87 10.9 3.64 21.7 5.18 32.47 c 3.12 21.54 5.4 42.94 6.6 64.17 c 2.36 42.41 0.36 84.27 -8.3 123.44 c -7.57 34.2 -18.7 60.79 -30.61 81.8 c -12.03 20.88 -24.59 36.95 -36.85 48.6 c -12.43 11.71 -25.02 19.66 -37.95 25.18 c -12.97 5.45 -26.37 8.53 -41.06 9.1 c -42.87 4.19 -88.61 -11.43 -124.55 -40.86 c -36.15 -29.24 -62.36 -72.97 -69.15 -121.11 c -3.53 -24.1 -2.41 -48.59 2.8 -73.22 c 5.04 -25.53 10.74 -50.92 17.48 -75.89 c 6.75 -24.95 14.49 -49.55 24.12 -72.88 c 4.84 -11.65 10.16 -22.98 16.25 -33.47 c 3.04 -5.23 6.29 -10.25 9.75 -14.78 c 1.73 -2.26 3.52 -4.39 5.32 -6.27 c 0.89 -0.94 1.79 -1.81 2.64 -2.56 l 1.19 -0.99 l 0.46 -0.34 l 0.12 -0.08 l -0.45 -0.8 l -1.07 -1.93 c 0.76 1.52 -3.53 -6.76 1.42 2.78 l -0.36 0.18 l -8.59 -23.58 c -94.87 27.18 -189.2 49.74 -277.99 63.14 c 1.18 1.09 -36.18 7.91 13.77 1.32 c 101.22 -16.99 212.52 -44.37 266.17 -57.23 l 3.51 9.6 c -1.06 0.49 -3.28 2.16 -4.73 3.45 c -1.6 1.39 -3.08 2.83 -4.44 4.23 c -2.71 2.81 -4.94 5.44 -6.79 7.65 c -3.66 4.43 -5.81 7.16 -6.56 7.45 c 3.06 -4.83 6.31 -9.52 9.87 -13.88 c 3.47 -4.22 7.66 -8.68 11.62 -11.09 l -1.84 -5.04 l -17.87 4.83 l 17.98 -4.43 l 1.57 4.3 c -4.65 2.67 -9.28 7.6 -13.23 12.31 c -4.02 4.84 -7.67 10.06 -11.1 15.44 c -6.84 10.79 -12.75 22.25 -18.15 33.94 c 0 0 -5.82 14.36 -10.63 29.1 c -4.9 14.68 -9.03 29.62 -9.03 29.62 c -5.33 14.92 -7.69 21.65 -8.53 22.54 c -7.19 25.65 -13.27 50.72 -18.7 75.57 c -5.39 25.05 -6.82 50.84 -3.45 76.29 c 6.55 50.86 32.58 100.27 76.02 135.82 c 15.74 12.06 33.58 22.43 53.56 30.09 c 19.96 7.62 42.17 12.57 66.06 12.67 c 23.79 0.09 49.41 -4.97 73.77 -17.63 c 12.14 -6.32 23.92 -14.47 34.76 -24.44 c 10.91 -10.02 20.66 -21.63 29.82 -34.33" stroke-linecap="round" />
</g>
		<g transform="matrix(0.17057197696737042 0 0 -0.17057197696737042 45.52424367894173 2.9487281190019416)"  >
<path style="stroke: none; stroke-width: 1; stroke-dasharray: none; stroke-linecap: butt; stroke-dashoffset: 0; stroke-linejoin: miter; stroke-miterlimit: 10; fill: rgb(217,217,216); fill-rule: nonzero; opacity: 1;"  paint-order="stroke"  transform=" translate(-1892.4350000000002, -1474.9800000000005)" d="m 1885.05 1480.59 l -0.09 -0.09 l -0.48 -0.07 l -1.84 0.52 c -0.1 -0.66 -0.05 -1.63 0 -2.61 l -0.84 -0.03 c 0.14 -1.74 0.1 -2.06 -0.09 -2.32 c -0.21 -0.34 -0.5 0.15 -1.18 -2.99 l 0.29 2.61 l -0.14 0.98 c 0 0 -0.32 -2.1 -0.64 -4.2 c -0.39 -2.78 -0.79 -5.56 -0.79 -5.56 c -0.46 1.61 -1.03 2.96 -1.75 1.15 c -1.15 1.29 -3.11 -2.21 -4.62 -3.44 c 0.06 2.02 0.06 3.63 -0.03 4.4 c -0.58 -0.2 -1.03 -2.08 -1.39 -4.42 l -0.32 0.78 l 0.32 -0.78 c -0.23 -1.53 -0.42 -3.26 -0.57 -4.86 c -0.06 0.92 -0.13 1.84 -0.43 1.42 l 0.75 6.71 l -0.36 -0.37 l 0.51 1.7 l 0.18 -1.37 l 0.74 1.26 c 0.27 1.77 0.08 2.26 0.01 3.16 l 0.98 3.52 c 1.15 1.22 -0.47 -9.46 1.09 -3.77 l -0.05 1.83 c 0.59 2.96 0.85 5.28 1.65 6.45 c -0.87 2.73 1.47 4.91 0.06 6.52 l 0.06 1.64 l 1.22 0.39 c 1.03 0.05 2.09 0.09 3.16 0.14 c 2.2 0.04 4.47 0.07 6.74 0.11 c 5.21 0.1 11.37 0.33 16.23 1.3 c 1.75 -1.09 1.78 -3.25 6.15 -4.54 l 1.73 0.64 l 3.06 -0.55 c -1.74 -0.03 -3.92 0.01 -4.78 -0.44 c 4.79 -0.41 -2.15 -0.98 -1.71 -1.59 l 6.53 -0.47 l -0.76 -0.25 c -5.84 -0.3 -11.67 -0.77 -17.5 -1.27 l -8.13 -0.73 l -2.83 -0.56 l -0.14 0.05" stroke-linecap="round" />
</g>
		<g transform="matrix(0.17057197696737042 0 0 -0.17057197696737042 -99.79819010224827 -52.208600095969246)"  >
<path style="stroke: none; stroke-width: 1; stroke-dasharray: none; stroke-linecap: butt; stroke-dashoffset: 0; stroke-linejoin: miter; stroke-miterlimit: 10; fill: rgb(217,217,216); fill-rule: nonzero; opacity: 1;"  paint-order="stroke"  transform=" translate(-1040.3500591115067, -1798.3899999999999)" d="m 1000.06 1818.07 l -1.22 -0.79 l -4.41 -2.53 c -1.481 -0.4 -2.953 -1.3 -4.766 -2.38 c -1.723 -1.13 -4.039 -2.3 -5.836 -4.07 c -4.144 -3.2 -8.121 -7.98 -9.762 -12.66 c -0.207 0.12 -0.531 1.09 -1.503 -2.23 c -0.653 -7.38 2.441 -9.87 2.539 -11.45 c 1.023 -1.62 0.675 -2.9 6.078 -9.38 c -3.66 3.8 -7.004 8.89 -7.883 10.71 c 0 0 0.512 -1.58 2.113 -3.94 c 1.367 -2.4 3.981 -5.5 6.813 -8.49 c 5.769 -6.02 13.093 -11.05 13.093 -11.05 c -4.238 2.28 -7.878 4.1 -3.429 0.15 c -3.719 1.03 4.926 -7.27 8.313 -10.76 c -5.727 3.28 -10.048 6.21 -12.114 7.55 c 0.375 -0.96 5.254 -5.04 11.924 -9.11 c -0.584 0.16 -1.213 0.39 -2.268 0.91 c 1.055 -0.52 1.684 -0.75 2.268 -0.91 c 4.32 -2.71 9.42 -5.46 14.14 -7.64 c -2.7 1.07 -5.44 2.32 -4.23 1.4 c 0 0 -4.98 2.53 -9.76 5.42 c -4.801 2.85 -9.383 6.07 -9.383 6.07 c -0.668 0.29 -0.129 -0.2 0.934 -1.04 c 0 0 -1.172 0.85 -2.277 1.79 c -1.118 0.93 -2.231 1.86 -2.231 1.86 l 3.762 -2.32 c 1.402 -0.68 -0.973 1.16 -3.223 3.09 c -4.605 3.57 -5.828 4.52 -8.156 6.32 l -7.59 9 c -0.973 2 3.711 -3.95 8.223 -7.68 c 4.414 -3.82 7.594 -6.2 0.754 0.3 c 0 0 -1.11 0.93 -2.215 1.86 c -1.028 1 -2.067 2 -2.067 2 c -2.949 3.14 -5.812 7.21 -7.855 11.16 c -0.824 2.02 -1.789 3.94 -2.012 5.76 c -0.519 1.78 -0.562 3.38 -0.41 4.63 c -0.672 1.84 -0.203 4.12 0.094 6.47 c 0.875 2.26 1.617 4.65 3.156 6.57 c 1.152 2.07 2.727 3.7 3.856 5.02 c 1.109 1.33 1.726 2.39 1.734 2.93 c 11.652 11.48 29.746 20.04 48.036 26.63 c 18.42 6.58 37.37 11.74 53.79 16.51 c 5.98 0.37 6.48 -1.89 21.17 -0.12 c 2.84 0.78 7.18 1.88 5.66 1.82 l 10.29 1.33 c -5.85 -1.01 -13.11 -2.41 -15.89 -3.49 c 15.98 2.87 -7.02 -2.47 -5.48 -2.76 c 0 0 5.44 1.01 10.87 2.01 c 5.46 0.89 10.93 1.78 10.93 1.78 l -2.52 -0.71 c -19.41 -3.91 -38.66 -8.5 -57.43 -14.17 c -18.73 -5.6 -37.37 -12.07 -53.77 -20.96 l -0.85 -0.41" stroke-linecap="round" />
</g>
		<g transform="matrix(0.17057197696737042 0 0 -0.17057197696737042 -32.95972561088553 -57.73098013435694)"  >
<path style="stroke: none; stroke-width: 1; stroke-dasharray: none; stroke-linecap: butt; stroke-dashoffset: 0; stroke-linejoin: miter; stroke-miterlimit: 10; fill: rgb(217,217,216); fill-rule: nonzero; opacity: 1;"  paint-order="stroke"  transform=" translate(-1432.2509999999993, -1830.7699999999998)" d="m 1391.96 1890.41 l -0.25 -1.34 c 50.89 7.1 104.77 8.77 160.48 6.39 c 55.72 -2.29 113.33 -8.48 172.01 -17.96 c 117.4 -18.98 239.11 -50.7 360.2 -91.61 c -1.77 -4.3 -3.58 -8.66 -5.38 -13.03 c -37.82 18.94 -78.71 34.14 -119.74 47.35 c -41.23 13.05 -83.15 24.12 -125.4 33.44 c -84.54 18.53 -170.32 29.51 -254.82 35.33 l 9.91 -5.39 c -13.95 1.12 -28.13 2.25 -42.47 3.39 c -7.19 0.56 -14.41 1.12 -21.66 1.69 c -7.3 0.3 -14.62 0.61 -21.97 0.92 c -29.39 1.15 -59.15 2.32 -88.69 3.49 c -58.95 1.65 -117.13 -0.12 -169.7 -4.04 l 40.61 4.64 c -18.71 -0.59 -52.05 -1.88 -87.88 -5.88 c -17.94 -1.66 -36.5 -3.96 -54.22 -6.46 c -8.86 -1.24 -17.53 -2.45 -25.79 -3.61 c -8.25 -1.38 -16.11 -2.7 -23.4 -3.93 l 5.94 -0.3 c 80.19 11.44 -5.38 -0.98 27.53 0.39 l 14 1.36 l -8.06 -1.78 l -14.02 -1.35 c 1.68 -0.49 0.61 -1.59 13.76 0.01 c 0 0 -4.62 -0.7 -9.25 -1.39 c -4.63 -0.73 -9.25 -1.47 -9.25 -1.47 c -39.3 -9.86 -38.87 -12.78 -33.33 -15.76 c -10.44 -1.31 -0.25 4.55 -44.23 -4.68 l 5.98 -0.2 c 0 0 -12.17 -1.62 -24.35 -3.25 c -12.15 -1.79 -24.313 -3.59 -24.313 -3.59 l -21.184 -5.81 c -17.308 -2.72 -28.543 -4.29 -46.031 -8.44 l -5.832 1.32 c -27.312 -6.25 -58.16 -13.3 -89.133 -20.38 l -0.793 -0.19 l -0.273 -0.2 l 1.324 -0.46 l 2.703 -0.92 l 5.621 -1.89 c 3.942 -1.27 7.868 -2.55 11.731 -3.8 c 20.762 -6.54 41.98 -13.05 61.555 -18.72 c 16.496 -7.76 59.394 -17.86 102.565 -33.63 l -19.562 3.31 c -24.125 5.68 -63.66 17.68 -106.757 31.12 c -18.84 5.89 -38.469 12.03 -57.575 18 c -7.703 2.37 -15.3 4.71 -22.652 6.97 l -1.418 0.43 l -0.703 0.22 l -0.215 0.2 l 2.602 0.74 c 1.742 0.48 3.461 0.96 5.16 1.43 c 3.43 0.95 6.789 1.89 10.055 2.8 l -5.606 0.09 c -7.582 -1.63 -14.203 -3.05 -21.211 -4.56 l -1.043 -0.32 l 1.028 -0.37 l 2.171 -0.77 c 1.571 -0.52 3.172 -1.05 4.844 -1.61 c 3.473 -1.12 7.492 -2.33 12.113 -3.6 l -0.871 -2.38 c -6.382 0.86 -13.914 2.43 -22.285 4.52 c -4.18 1.11 -8.512 2.26 -13.019 3.46 l -3.368 0.95 l -1.496 0.49 l 1.411 0.42 c 1.968 0.57 3.976 1.15 6.011 1.74 c 16.762 4.72 38.602 9.8 58.16 13.78 c 10.149 2.17 17.977 3.48 26.5 5.07 c 8.301 1.49 16.27 2.91 23.582 4.22 c 14.653 2.53 26.692 4.81 33.727 6.64 c 59.785 15.19 -40.453 -3.11 -11.617 2.66 c -33.449 -5.7 -19.977 -1.09 5.359 6.1 c 12.789 3.38 28.379 7.5 42.578 11.25 c 14.242 3.6 27.063 6.83 33.981 8.95 c 38.756 10.4 101.616 22.76 168.356 31.49 c 66.69 9.01 137.18 14.15 190.34 15.84 c 11.12 -0.06 22.44 -0.12 33.95 -0.18 c 11.53 0.1 23.17 -0.83 35.01 -1.13 c 23.72 -0.91 47.91 -1.59 72.57 -2.17 c 24.61 -0.19 49.76 -1.86 75.04 -3.18 c 25.32 -0.9 50.67 -3.73 75.98 -5.68 c 101.18 -8.87 199.96 -27.76 279.14 -50.4 c 11.75 -3.49 24.59 -7.36 37.95 -11.92 c 13.28 -4.9 27.3 -9.63 41.22 -15.5 c 28.12 -11.25 56.11 -23.88 81.95 -37.7 l -9.37 -22.71 c -16.05 5.61 -31.2 10.66 -44.68 14.69 c -13.53 3.85 -25.42 6.6 -34.86 7.99 c 0 0 -34.89 10.39 -70.04 19.64 c -17.57 4.64 -35.17 9.14 -48.44 12.2 c -13.24 3.16 -22.07 5.27 -22.07 5.27 l 2.68 -2.14 c -68.67 16.3 -141.41 30.99 -213.64 40.26 c -72.17 9.07 -143.94 13.01 -208.95 7.99 c -28.36 -2.26 -46.72 -4.23 -61.13 -6.39 c -14.36 -2.25 -24.8 -4.93 -36.25 -10.46 l -2.36 -0.8 l -0.61 -0.25 l -1.04 -0.47 l -1.88 -0.95 c -0.84 -0.61 -3.41 -1.47 -0.85 -2.51 l 4.09 -2.89 l 0.64 -0.5 l 2.22 -1.93 l 4.43 -3.88 l 8.87 -7.81 c 6.09 -5.03 11.46 -11.01 17.02 -16.79 c 5.68 -5.64 10.8 -11.95 15.86 -18.32 c 5.29 -6.13 9.71 -13.18 14.45 -19.88 c 4.44 -7.24 8.54 -13.82 12.53 -22.66 l -23.62 -13.2 c -1.41 2.23 -3.89 5.59 -6.11 8.37 c -2.38 2.9 -4.77 5.81 -7.4 8.58 c -2.5 2.85 -5.21 5.55 -7.96 8.22 c -2.66 2.74 -5.5 5.33 -8.4 7.84 c -5.6 5.24 -11.79 9.81 -17.73 14.61 c -6.33 4.29 -12.33 9.04 -18.87 12.9 c -25.63 16.27 -52.95 28.47 -79.67 37.53 c 0.77 1.05 -13.55 7.02 6.18 1.49 c 26.69 -9.8 54.39 -22.54 75.12 -34.05 c 20.76 -11.43 34.84 -21.08 36.72 -20.3 c 0 0 -1.02 0.89 -2.67 2.06 c -1.62 1.21 -3.79 2.81 -5.97 4.41 c -2.17 1.59 -4.34 3.18 -5.97 4.37 c -1.69 1.11 -2.82 1.84 -2.82 1.84 c 0 0 2.15 -1.09 5.15 -3.09 c 3.04 -1.98 7.08 -4.63 11.13 -7.26 c 3.92 -2.87 7.83 -5.72 10.78 -7.87 c 2.94 -2.17 4.76 -3.79 4.76 -3.79 c 0 0 1.08 -1.13 2.72 -2.82 c 1.66 -1.67 3.8 -3.95 5.82 -6.37 c 4.21 -4.64 7.97 -9.66 7.97 -9.66 c 4.72 -4.33 6.91 -6.32 7.59 -6.37 l 1.85 -2.52 l -1.87 -1.03 c -9.79 18.41 -22.84 33.32 -36.38 47.34 c -3.59 3.3 -7.21 6.61 -10.85 9.94 c -3.6 3.36 -7.22 6.73 -11.29 9.68 c -3.95 3.07 -7.93 6.18 -11.97 9.34 c -4.8 3.68 -9.68 7.41 -14.64 11.22 c -3.76 3.19 -7.58 6.43 -11.48 9.75 c -1.95 1.62 -3.91 3.27 -5.9 4.94 l -3 2.5 l -0.72 0.63 l 0.78 0.64 l 1.58 1.31 c 4.24 3.28 8.3 6.07 13.16 8.78 c 2.6 1.24 5.08 2.63 7.87 3.81 c 2.88 1.12 5.81 2.25 8.78 3.4 c 3.02 1.12 6.27 2.09 8.33 2.77 c 2.37 0.79 4.79 1.52 7.26 2.18 c 4.91 1.46 10 2.81 15.27 4.09 c 10.54 2.68 21.82 5.02 33.96 7.41" stroke-linecap="round" />
</g>
		<g transform="matrix(0.17057197696737042 0 0 -0.17057197696737042 -190.4328925974498 6.4284363723608635)"  >
<path style="stroke: none; stroke-width: 1; stroke-dasharray: none; stroke-linecap: butt; stroke-dashoffset: 0; stroke-linejoin: miter; stroke-miterlimit: 10; fill: rgb(217,217,216); fill-rule: nonzero; opacity: 1;"  paint-order="stroke"  transform=" translate(-508.92114297035164, -1454.5770623217957)" d="m 425.172 1514.31 c 0 0 -0.434 -2.77 -0.863 -5.56 c -0.485 -2.78 -0.719 -5.58 -0.719 -5.58 c -1.543 2.45 0.695 6.48 1.582 11.14 z m -0.25 -16.32 c -0.617 3.51 1.273 10.23 1.953 13 c 0.352 -4.4 -0.285 -9.05 -0.539 -14.51 c 0.269 5.45 -0.773 1.66 -1.414 1.51 z m 1.5 -14.1 l 1.59 0.4 c -0.547 -3.74 -1.391 -2.16 -1.711 -2.24 z m 2.055 -18.48 c 0.261 -3.36 0.578 -6.38 1.082 -6.83 l -0.688 -3.85 c -0.375 -0.12 -0.215 5.66 -0.394 10.68 z m 2.476 -24.55 c -0.793 -3.98 0.719 -7.02 1.313 -10.48 c -0.649 -0.27 -3.043 9.87 -1.918 -1.74 c -0.582 4.48 -0.403 10.92 -1.598 6.78 c -0.195 7.29 1.543 0.6 2.203 5.44 z m -0.504 7.14 c -0.488 3.51 -0.726 7.91 -0.113 9.93 c -0.039 -3.64 1.062 -6.82 0.113 -9.93 z m 0.063 85.94 c 0.277 -1.78 -0.805 -5.48 -1.199 -8.21 l -0.168 6.27 c 0.359 0.94 0.66 0.07 1.367 1.94 z m 23.433 -137.29 l 0.735 -0.77 c 0.023 -7.08 2.625 -9.65 4.113 -19.35 c -2.711 6.69 -4.055 14.18 -4.848 20.12 z m 0.735 -0.77 l 0.066 1.2 l 0.352 -1.64 z m 0.156 3.05 l -0.09 -1.85 c -1.199 5.21 -1.933 3.24 -2.156 9.67 c 0 0 0.543 -1.96 1.094 -3.93 c 0.504 -1.97 1.152 -3.89 1.152 -3.89 z m -20.617 37.57 c -0.117 4.48 1.758 7.46 1.64 11.91 c -0.488 2.1 -0.82 4.2 -1.168 6.31 c 0.071 4.48 0.586 11.33 0.227 13.46 c -1.148 8.49 -0.617 20.87 0.988 33.46 c 0.778 6.3 2 12.63 2.887 18.66 c 1.223 5.96 2.27 11.61 3.047 16.56 c 2.465 13.13 6.933 26.17 11.859 40.96 c 3.852 12.66 14.332 31.58 28.817 43.77 c 2.191 1.21 4.164 2.64 6.468 3.59 c 5.926 3.7 16.379 9.07 19.219 8.25 c 13.633 1.09 26.317 -4.75 35.469 -12.61 c 9.316 -7.88 16.191 -17.36 20.848 -26.77 c 14.699 -28.21 22.664 -58.76 25.324 -87.62 l 1.289 -1.63 c 0.012 -3.48 -0.059 -6.8 -0.66 -7.35 c 0.101 -1.84 0.203 -3.69 0.261 -5.52 c 0.805 -4.45 1.184 -8.5 0.129 -11.5 c 0.664 -3.64 0.891 -1.24 1.426 -3.32 c 0.082 -5.77 0.16 -11.84 0.238 -18 c 0.352 -1.85 0.633 -4.49 0.719 -10.04 l -0.469 -0.16 c 0.125 -4.49 0.246 -8.97 0.371 -13.46 c 0.415 -13.82 0.778 -26.44 1.633 -34.02 c -4.152 -9.66 -3.863 -22.73 -7.511 -33.99 c -3.68 -13.46 -10.106 -28.56 -13.192 -39.09 c -5.09 -16.94 -13.531 -29.71 -23.277 -38.62 l -1.196 -1.62 l -1.82 -1.18 l -0.738 -0.68 c -11.379 -8.95 -24.192 -12.03 -34.969 -10.11 c 1.168 2.71 2.188 5.69 4.551 8.26 c 2.371 2.79 5.75 5.48 12.039 11.04 c 1.902 1.76 3.91 3.79 5.926 5.9 c 2.219 3.49 4.5 7.44 6.797 11.95 c 2.019 1.99 4.211 4.73 6.562 7.78 c 2.106 3.32 4.344 7 6.391 10.88 c 0.742 1.63 1.41 3.21 2.16 4.82 l 0.344 2.02 c 1.129 1.61 2.367 4.19 3.515 6.9 c 1.192 3.2 2.356 6.33 3.297 8.86 c 7.41 31.81 11.184 61.7 12.168 91.91 c 0.418 23.63 0.352 47.93 -1.836 70.5 c -2.199 3.05 -5.039 8.25 -7.168 16.33 c -2.914 11.1 -7.578 23.51 -12.086 34.82 c -4.699 11.27 -9.64 20.8 -12.269 28.59 c -2.813 1.85 -5.305 4.19 -7.516 6.14 c -2.305 1.64 -4.051 3.69 -5.281 4.92 c -3.309 3.59 -7.625 6 -12.246 7.08 c -5.016 0.86 -9.891 -1.12 -14.653 -3.02 c -4.496 -2.68 -9 -5.75 -13.183 -9.73 c -5.235 -5.96 -9.856 -13.09 -13.727 -20.45 c -8.437 -13.81 -13 -32.01 -17.023 -44.16 c -2.918 -7.12 -4.203 -14.1 -5.746 -20.6 l -0.352 -2.08 c -0.195 -1.76 -0.375 -3.53 -0.289 -4.85 h -0.055 c -0.109 -1.49 -0.238 -3 -0.496 -4.56 c 0.231 1.69 0.356 3.16 0.45 4.55 l -0.446 -0.06 c -0.379 -2.2 -0.761 -4.45 -1.136 -6.66 l -0.106 -1.78 c -0.113 -3.01 -0.23 -6.08 -0.336 -8.98 c -0.289 -5.77 -0.172 -10.8 0.625 -12.74 c -2.023 -3.9 -1.703 3.92 -0.824 10.71 c -1.051 -7.07 -1.66 -15.61 -2.117 -23.49 l 0.027 -1.38 c 0.399 3.28 1.25 5.68 0.582 9.39 c 0.742 1.86 1.172 1.1 1.488 -1.32 c -0.992 -7.06 -0.004 -19.9 -1.136 -22.15 c 0.242 -1.47 0.332 -3.21 0.757 -4.37 l -1.148 -3.86 l 0.356 -1.62 l -0.563 1.52 c 0.008 -3.57 0.086 -7.2 0.203 -10.78 c 0.449 -6.28 0.711 -12.3 0.348 -17.1 l -0.742 -1.95 c 0.855 -1.99 0.558 1.62 1.117 2.64 c 0.808 -6.82 1.398 -11.92 0.406 -14.23 l -1.727 11.2 l -0.921 -0.94 c -0.379 -4.03 -0.61 -7.45 -0.262 -8.7 c 2.004 -8.93 4.32 -15.51 6.855 -21.34 l 0.2 0.61 l -0.59 2.15 c -0.848 4.29 -1.821 9.23 -2.235 11.31 l 2.84 -7.64 l -0.308 -2.93 c 0.57 -2.43 1.218 -2.07 1.476 -1.91 l 0.11 -0.71 l 0.472 -0.43 l -0.34 -0.43 l 0.551 -3.57 l -0.269 -0.06 c 1.816 -3.08 3.582 -5.98 5.886 -12.82 l -0.058 -0.39 c 1.511 -3.28 3.047 -6.67 4.629 -10.71 c 0.457 -0.79 0.89 -3.89 1.175 -6.93 l 0.231 -0.65 c 0.285 -2.25 0.25 -3.41 0.082 -4.11 c 0.027 -1.07 0.012 -1.88 -0.094 -1.99 c -1.93 1.12 -4.512 5.69 -7.008 10.72 l 0.453 -1.38 l -0.39 0.7 l -0.121 0.8 c -1.985 4 -3.914 8.26 -5.375 11.37 c -1.664 1.7 -2.586 2.88 -4.164 4.92 c -2.434 3.31 -0.981 -5.6 -0.703 -7.97 c -8.778 11.49 -14.946 47.6 -15.883 76.6 z m 20.019 -55.84 l 0.051 -0.12 l 0.438 -0.75 l -0.348 1.04 z m 53.907 -92.75 c -2.567 1.07 3.582 -0.83 2.019 1.05 l 1.426 0.11 c 1.18 -1.24 -0.774 -1.18 -3.445 -1.16 z m 1.976 1.2 l 0.043 -0.15 l -1.547 0.12 l 0.086 0.1 z m 2.051 2.27 c -1.164 -0.57 -3.336 -0.93 -3.469 -2.2 l -0.844 0.03 c -1.148 0.01 -2.277 0.68 -2.277 0.59 c 1.531 -0.35 2.531 0.03 3.305 0.49 l 1.957 1.14 c -1.352 0.39 -3.653 0.25 -3.227 -0.6 l -1.801 1.77 c 0.008 0.19 1.602 -0.99 3.2 -0.81 c 1.589 -0.09 3.156 -0.41 3.156 -0.41 z m -10.981 -3.26 c 2.133 -0.22 4.266 -0.44 4.266 -0.44 c -1.199 -1.54 -3.937 0.33 -7.582 0.95 l -1.051 1 c 0 0 2.184 -0.75 4.367 -1.51 z m -7.207 9.71 c -1.129 -0.45 1.204 -3.83 -4.472 -0.04 c 1.679 -1.16 3.5 -1.69 3.304 -0.56 l -1.597 1.08 c -0.071 0.7 1.48 0.01 2.765 -0.48 z m -38.074 38.99 l 0.09 -0.23 l -0.02 0.02 c -3.167 1.64 -4.402 9.07 -7.847 13.77 l 1.847 1.44 c 1.985 -6.81 3.637 -7.56 5.93 -15 z m -27.754 132.86 c -0.125 1.39 -0.332 2.47 -0.718 2.74 c 0 0 -0.321 -3.22 -0.407 -6.46 c -0.133 -3.23 -0.273 -6.46 -0.273 -6.46 c 0 0 -0.137 2.92 -0.285 5.84 c -0.18 2.92 -0.211 5.86 -0.215 5.85 c 1.422 7.02 1.722 3.53 1.898 -1.51 z m -1.375 -18.39 l 1.367 -5.05 l -1.644 3.11 z" stroke-linecap="round" />
</g>
		<g transform="matrix(0.17057197696737042 0 0 -0.17057197696737042 0.7034375369071881 -0.14861545105563323)"  >
<linearGradient id="SVGID_91374" gradientUnits="userSpaceOnUse" gradientTransform="matrix(1 0 0 1 461.58229879924215 1142.5796448602741)"  x1="0" y1="0" x2="0" y2="701">
<stop offset="0%" style="stop-color:rgb(245,81,95);stop-opacity: 1"/>
<stop offset="100%" style="stop-color:rgb(159,4,27);stop-opacity: 1"/>
</linearGradient>
<path style="stroke: none; stroke-width: 1; stroke-dasharray: none; stroke-linecap: butt; stroke-dashoffset: 0; stroke-linejoin: miter; stroke-miterlimit: 10; fill: url(#SVGID_91374); fill-rule: nonzero; opacity: 1;"  paint-order="stroke"  transform=" translate(-1629.632153170826, -1493.1412490075454)" d="m 461.91 1436.18 c 4.02 92.06 43.949 165.08 89.184 163.11 c 45.238 -1.98 78.652 -78.2 74.633 -170.26 c -4.02 -92.06 -43.95 -165.08 -89.188 -163.11 c -45.234 1.97 -78.648 78.2 -74.629 170.26 z m 14.551 118.5 c 6.031 32.54 26.965 125.57 71.793 141.44 c 54.492 19.29 188.676 71.94 279.203 46.31 c 90.527 -25.62 92.098 -40.85 249.743 -65.07 c 157.66 -24.22 189.18 -19.09 340.45 15.47 c 221.58 54.45 345.79 9.48 379.01 -5.76 l 260.76 -138.52 l -235.7 138.12 c 39.67 9.92 156.78 32.79 358.79 20.53 c 15.94 -2.43 27.87 -4.2 36.92 -5.53 l 302.5 -93.83 l -260.79 92.89 l -1.46 0.22 c 36.98 8.58 146.94 31.76 216.33 21.6 c 85.87 -29.75 179.36 -90.17 235.28 -140.29 c 2.89 -3.42 5.49 -6.54 8.21 -9.8 l -45.41 -23.24 l 34.28 -34.01 l 50.18 9.55 c 44.29 -56.09 49.38 -73.58 31.48 -84.62 c -22.97 -14.16 -43.14 -15.45 -43.46 -73.94 c -0.32 -58.5 21.8 -63.8 5.81 -71.77 c -16 -7.97 -141.54 -67.49 -267.61 -87.99 c -126.08 -20.5 -318.89 -33.75 -502.12 -32.25 c -182.04 1.49 -315.21 7.3 -315.54 39.19 c -35.68 -45.44 -86.99 -73.1 -142.93 -70.65 c -101.27 4.42 -179.11 105.51 -173.86 225.8 c 5.25 120.29 91.61 214.22 192.88 209.79 c 34.73 -1.51 66.58 -14.6 93.39 -35.73 c -6.31 9.25 -13.21 18.28 -21.15 26.84 c -113.15 121.96 -339.69 1.84 -300.67 -179.72 c 39.01 -181.57 85.01 -203.08 85.01 -203.08 c 0 0 -218.7 59.39 -359.26 65.53 c -111.196 115.37 -358.786 76.34 -376.727 74.95 c -1.063 78.06 -28.074 278.6 -103.457 292.73 c -58.684 10.99 -76.731 -41.37 -81.875 -65.16 z m 1826.039 -74.05 l 264.74 -188.9 l 84.57 253.82 l -95.88 -85.65 z m -428.95 -46.07 c 0 0 11.78 -37.35 42.83 -43.04 c 31.04 -5.69 171.6 -11.82 178.39 -9.95 c 6.78 1.87 55.43 40.91 55.43 40.91 l 87.39 4.86 l 34.88 30.98 c 0 0 0 0 -8.36 13.36 c -89.52 -2.59 -387.01 -6.93 -387.01 -6.93 z M 476.461 1554.68 c -1.297 -7.02 -1.938 -11.36 -1.938 -11.36 c 0 0 0.477 4.59 1.938 11.36 z m 554.459 137.7 l -222.881 66.08 c 0 0 377.501 96.19 651.911 84.21 c 402.35 -0.23 623.15 -113.88 623.15 -113.88 c -498.17 160.43 -744.78 91.84 -765.8 71.09 c 73.33 -45.96 96.36 -96.04 96.36 -96.04 c 0 0 -57.77 87.05 -237.73 112.24 c -328.528 -45.83 -145.01 -123.7 -145.01 -123.7" stroke-linecap="round" />
</g>
		<g transform="matrix(0.17057197696737042 0 0 -0.17057197696737042 0.703836769152872 -0.14861545105563323)"  >
<linearGradient id="SVGID_91376" gradientUnits="userSpaceOnUse" gradientTransform="matrix(1 0 0 1 461.58229879924215 1142.5796448602741)"  x1="0" y1="0" x2="0" y2="701">
<stop offset="0%" style="stop-color:rgb(245,81,95);stop-opacity: 1"/>
<stop offset="100%" style="stop-color:rgb(159,4,27);stop-opacity: 1"/>
</linearGradient>
<path style="stroke: url(#SVGID_91376); stroke-width: 13.108; stroke-dasharray: none; stroke-linecap: butt; stroke-dashoffset: 0; stroke-linejoin: miter; stroke-miterlimit: 4; fill: none; fill-rule: nonzero; opacity: 1;"  paint-order="stroke"  transform=" translate(-1629.6343726787352, -1493.1412490075454)" d="m 461.91 1436.18 c 4.02 92.06 43.949 165.08 89.188 163.11 c 45.234 -1.98 78.648 -78.2 74.629 -170.26 c -4.02 -92.06 -43.95 -165.08 -89.188 -163.11 c -45.234 1.97 -78.648 78.2 -74.629 170.26 z m 14.551 118.5 c 6.031 32.54 26.965 125.57 71.793 141.44 c 54.492 19.29 188.676 71.94 279.203 46.32 c 90.527 -25.63 92.098 -40.86 249.743 -65.08 c 157.66 -24.22 189.18 -19.09 340.45 15.47 c 221.58 54.45 345.79 9.48 379.01 -5.76 l 260.76 -138.52 l -235.7 138.12 c 39.67 9.92 156.78 32.79 358.79 20.53 c 15.94 -2.43 27.87 -4.2 36.92 -5.53 l 302.5 -93.83 l -260.79 92.89 l -1.46 0.22 c 36.98 8.58 146.94 31.76 216.33 21.6 c 85.88 -29.75 179.36 -90.17 235.28 -140.29 c 2.89 -3.42 5.49 -6.54 8.21 -9.8 l -45.41 -23.24 l 34.28 -34.01 l 50.18 9.55 c 44.29 -56.09 49.39 -73.58 31.48 -84.62 c -22.97 -14.16 -43.14 -15.45 -43.46 -73.94 c -0.32 -58.5 21.8 -63.8 5.81 -71.77 c -16 -7.97 -141.54 -67.49 -267.61 -87.99 c -126.08 -20.5 -318.89 -33.75 -502.12 -32.25 c -182.04 1.49 -315.21 7.3 -315.54 39.19 c -35.68 -45.44 -86.99 -73.1 -142.93 -70.65 c -101.27 4.42 -179.11 105.51 -173.86 225.8 c 5.25 120.29 91.61 214.22 192.88 209.79 c 34.73 -1.51 66.58 -14.6 93.39 -35.73 c -6.31 9.25 -13.21 18.28 -21.15 26.84 c -113.15 121.96 -339.69 1.84 -300.67 -179.72 c 39.01 -181.56 85.01 -203.07 85.01 -203.07 c 0 0 -218.7 59.38 -359.26 65.52 c -111.196 115.37 -358.786 76.34 -376.727 74.95 c -1.063 78.06 -28.074 278.6 -103.457 292.73 c -58.684 10.99 -76.731 -41.37 -81.875 -65.16 z m 1826.039 -74.05 l 264.74 -188.9 l 84.57 253.82 l -95.88 -85.65 z m -428.95 -46.07 c 0 0 11.78 -37.35 42.83 -43.04 c 31.04 -5.69 171.6 -11.82 178.39 -9.95 c 6.78 1.87 55.43 40.91 55.43 40.91 l 87.39 4.86 l 34.88 30.98 c 0 0 0 0 -8.36 13.36 c -89.52 -2.59 -387.01 -6.93 -387.01 -6.93 z M 476.461 1554.68 c -1.297 -7.02 -1.938 -11.36 -1.938 -11.36 c 0 0 0.477 4.59 1.938 11.36 z m 554.459 137.7 l -222.881 66.08 c 0 0 377.501 96.19 651.911 84.21 c 402.35 -0.23 623.15 -113.88 623.15 -113.88 c -498.17 160.43 -744.78 91.84 -765.8 71.09 c 73.33 -45.96 96.36 -96.04 96.36 -96.04 c 0 0 -57.77 87.05 -237.73 112.24 c -328.528 -45.83 -145.01 -123.7 -145.01 -123.7 z" stroke-linecap="round" />
</g>
		<g transform="matrix(0.17057197696737042 0 0 -0.17057197696737042 -15.750719852728139 25.172989155470248)"  >
<path style="stroke: none; stroke-width: 1; stroke-dasharray: none; stroke-linecap: butt; stroke-dashoffset: 0; stroke-linejoin: miter; stroke-miterlimit: 10; fill: rgb(217,217,216); fill-rule: nonzero; opacity: 1;"  paint-order="stroke"  transform=" translate(-1533.154977021191, -1344.67)" d="m 1541.88 1144.94 c 74.35 3.24 130.73 95.3 125.91 205.61 c -4.81 110.31 -69 197.1 -143.36 193.85 c -74.36 -3.25 -130.73 -95.3 -125.91 -205.61 c 4.81 -110.31 69 -197.1 143.36 -193.85" stroke-linecap="round" />
</g>
		<g transform="matrix(0.17057197696737042 0 0 -0.17057197696737042 -20.624846532190645 24.793419097888716)"  >
<path style="stroke: none; stroke-width: 1; stroke-dasharray: none; stroke-linecap: butt; stroke-dashoffset: 0; stroke-linejoin: miter; stroke-miterlimit: 10; fill: rgb(217,217,216); fill-rule: nonzero; opacity: 1;"  paint-order="stroke"  transform=" translate(-1504.5755430153386, -1346.8957088664997)" d="m 1335.26 1348.88 l 0.33 3.16 c 0 0 0.25 -2.08 0.56 -4.14 c 0.3 -2.07 0.61 -4.13 0.61 -4.13 z m 1.88 27.04 c -0.43 -5.26 -0.85 -10.52 -0.85 -10.52 c 0 0 0.13 4.76 0.26 9.53 c 0.19 4.76 0.76 9.5 0.76 9.5 c 2.47 11.28 2.2 5.6 1.57 -2.56 c 0.1 2.24 0.08 4.01 -0.25 4.48 c 0 0 -0.83 -5.2 -1.49 -10.43 z m 1.98 26.09 l 0.61 2.94 l 1.63 0.49 c -1.53 -5.9 -1.91 -3.33 -2.24 -3.43 z m 2.67 25.67 c 0.62 5.59 4.67 15.99 6.07 20.33 c -0.89 -7.06 -3.17 -14.28 -5.16 -22.87 c 1.99 8.59 -0.21 2.7 -0.91 2.54 z m 5.05 24.15 c -1.38 -4.16 -4.59 -15.86 -4.59 -15.86 c -0.46 3.69 2.09 9.41 4.59 15.86 z m 19.36 -187.16 l 0.84 -1.18 c 0.81 -5.53 2.36 -9.14 3.89 -13.33 c 0.8 -2.09 1.64 -4.3 2.52 -6.95 c 0.94 -2.61 2.18 -5.51 3.36 -9.2 c -1.23 2.49 -2.43 5.05 -3.58 7.62 c -1 2.65 -1.87 5.36 -2.74 8 c -1.62 5.33 -3.45 10.33 -4.29 15.04 z m 1.32 -1.86 l -0.48 0.68 l -0.16 1.92 c 0.2 -0.8 0.39 -1.57 0.64 -2.6 z m -0.88 5.51 c 0.09 -1.13 0.17 -1.96 0.24 -2.91 c -2.08 8.16 -2.48 5 -4.11 15.04 z m -19.44 135.17 c 1.75 9.05 3.32 19.1 6.41 28.76 c 5.05 19.84 13.63 38.59 19.73 53.07 c 8.92 18.92 20.93 36.59 35.76 54.71 c 3.19 3.78 6.93 8.1 11.26 12.41 c 4.6 3.87 9.51 8.22 14.89 12.17 c 11.02 7.43 23.41 14.21 35.61 18.25 c 3.31 0.63 6.62 1.25 9.95 1.89 c 4.75 0.97 10.8 2.23 16.17 3.33 c 5.34 1.03 10.01 0.95 11.68 0.92 c 4.46 -0.11 8.89 -0.12 13.23 -1.06 c 4.35 -0.74 8.7 -1.22 12.94 -2.08 c 8.38 -2.49 16.72 -4.41 24.36 -8.25 c 7.92 -2.91 14.89 -7.8 21.87 -11.88 c 3.35 -2.32 6.46 -4.99 9.59 -7.43 c 3.11 -2.48 6.17 -4.9 8.78 -7.85 c 34.03 -32.81 56.25 -78.64 65.93 -124.32 c 0.75 -1.24 1.41 -2.34 1.41 -2.34 c 0.61 -5.1 1.23 -9.71 1.01 -11.23 c 0.46 -2.88 0.94 -5.75 1.29 -8.63 c 0.48 -2.3 0.88 -4.56 1.14 -6.67 c 0.66 -4.8 0.89 -9.01 0.56 -12.54 c 1.12 -5.84 1 -1.97 1.68 -5.33 c 0.47 -8.91 0.75 -18.58 0.86 -28.44 c 0.37 -3.02 0.64 -7.36 0.57 -17.04 l -0.6 -0.31 c -0.11 -7.33 -0.3 -14.64 -0.7 -21.74 c -0.17 -5.62 -0.95 -11.02 -1.31 -16.27 c -0.52 -5.21 -0.62 -10.3 -1.41 -14.91 c -1.35 -9.25 -1.91 -17.47 -2.79 -23.44 c -1.82 -3.7 -3.41 -7.74 -4.86 -12 c -0.69 -2.19 -1.38 -4.35 -2.09 -6.55 c -0.8 -2.18 -1.6 -4.38 -2.42 -6.6 c -1.59 -4.46 -3.21 -9.02 -4.82 -13.54 c -1.81 -4.41 -3.93 -8.65 -6.06 -12.73 c -9.83 -19.54 -24.68 -39.99 -34.88 -52.98 c -15.9 -21.28 -33.96 -33.61 -51.21 -40.43 c -1.05 -0.5 -2.05 -1.2 -3.14 -1.62 c -0.97 -0.26 -1.89 -0.5 -2.84 -0.75 l -1.42 -0.56 c -19.54 -5.97 -37.33 -5.36 -54.28 -3.07 c 1.95 2.72 3.77 5.68 8.76 8.22 c 4.97 2.43 13.11 4.72 27.15 9.7 c 4.43 1.6 8.94 3.47 13.46 5.49 l 0.74 0.43 c 2.65 1.73 5.48 3.28 8.29 5.22 c 2.74 2.14 5.57 4.34 8.46 6.6 c 7.88 3.36 18.23 10.98 27.74 20.25 c 1.87 1.79 3.59 3.76 5.31 5.72 l 1.73 2.83 c 2.05 2.18 5.31 5.08 8.01 8.75 c 2.98 4.17 5.92 8.27 8.29 11.58 c 12.55 21.74 21.64 44.69 28.18 67.97 c 6.38 23.33 10.81 47 11.95 71.13 c 2.34 37.68 -1.44 76.63 -10.16 111.43 c -1.28 2.4 -3.41 5.35 -5.58 9.32 c -2.33 3.88 -4.26 9.08 -7.18 14.87 c -7.15 16.44 -18.19 33.69 -29.61 48.42 c -11.3 15.09 -24.01 26.03 -32.44 35.22 c -4.9 1.73 -9.63 4.46 -14.08 6.39 c -4.5 1.76 -8.39 3.66 -11.04 5.27 c -7.32 3.87 -15.59 6.35 -24.22 7.69 l -0.42 0.07 c -18.49 1.52 -37.38 -2.5 -54.4 -8.85 c -11.61 -5.44 -22.63 -12.6 -32.45 -20.97 c -19.36 -14.89 -35.04 -38.95 -45.02 -55.95 c -1.59 -2.48 -3.21 -4.85 -4.59 -7.34 c -1.29 -2.58 -2.54 -5.09 -3.77 -7.54 c -2.39 -4.99 -4.88 -9.68 -6.57 -14.73 c -0.46 -1.21 -0.89 -2.37 -1.34 -3.57 l -0.7 -2.16 c -0.38 -1.47 -0.96 -3.12 -1.4 -4.67 l -0.47 -0.02 c -0.51 -1.38 -1.04 -2.79 -1.55 -4.15 c -0.47 -1.6 -0.98 -3.17 -1.45 -4.76 c -0.3 -1.32 -0.59 -2.63 -0.92 -3.99 c -1.04 -4.62 -2.34 -9.3 -3.18 -13.81 c -1.47 -9.11 -2.65 -16.99 -2.44 -20.05 c -2.9 -5.92 -0.49 6.2 1.81 16.86 c -1.23 -5.56 -2.57 -11.64 -3.94 -17.86 c -0.91 -6.35 -1.85 -12.83 -2.74 -19.08 l -0.09 -1.76 c 0.86 4.95 2.15 8.65 1.98 14.43 c 0.98 2.92 1.27 1.69 1.2 -2.19 c -2.61 -11.73 -2.38 -34.05 -3.93 -35.55 c 0.14 -2.45 0.39 -4.7 0.82 -6.64 l -1.16 -6.14 l 0.32 -2.59 l -0.52 2.47 c -0.02 -15.74 1.31 -32.64 2.24 -44.51 c -0.17 -1.42 -0.34 -2.45 -0.5 -3.25 c 1.23 -4 0.34 2.66 0.77 4.37 c 0.76 -5.42 1.42 -10.14 1.95 -13.99 c 0.67 -3.78 1 -6.69 0.79 -8.53 c 0 0 -1.18 4.94 -2.34 9.86 c -0.5 3 -0.98 5.86 -1.3 7.79 c -0.26 -1.09 -0.51 -1.47 -0.76 -1.59 c 0.17 -6.41 0.41 -11.86 1.23 -13.74 c 2.38 -8.92 4.6 -16.35 7.49 -22.67 c 1.48 -3.55 3.03 -6.41 4.49 -9.55 l -0.01 0.5 c -2.44 6.78 -5.49 16.6 -6.4 20.45 l 4.8 -11.67 l 0.56 -4.56 c 0.61 -1.81 1.02 -2.58 1.32 -2.89 l 0.23 -0.12 l 0.39 0.15 l 0.19 -0.81 l 0.65 -0.93 l -0.21 -0.67 l 0.45 -1.57 c 0.65 -1.93 1.31 -3.86 1.31 -3.86 l -0.25 -0.13 c 1.09 -1.71 2.2 -3.39 3.37 -5.35 c 1.97 -3.17 3.86 -7.36 7.19 -13.42 l 0.09 -0.52 c 2.82 -4.72 5.85 -9.66 9.34 -15.3 c 0.87 -1.13 2.77 -5.51 4.49 -9.92 l 0.56 -0.94 c 1.53 -3.23 2.27 -5.04 2.44 -5.98 c 0.59 -1.37 0.97 -2.38 0.87 -2.59 c -1.17 0.63 -2.86 2.15 -4.89 4.21 c -2.02 2.09 -3.99 5.07 -6.24 8.09 l -1.59 2.29 c 0.7 -1.23 1.24 -2.17 1.24 -2.17 l -0.74 0.97 l -0.54 1.25 c -1.71 2.36 -3.49 4.7 -4.98 7.16 c -1.95 3.29 -3.8 6.39 -5.39 8.88 c -2.33 2.37 -3.89 3.95 -6.12 6.94 c -1.7 2.45 -1.58 0.23 -0.69 -2.98 c 1 -3.14 2.64 -7.31 3.25 -9.07 c -1.65 2.05 -3.47 4.65 -5.42 7.73 c -1.81 3.15 -3.53 6.91 -5.44 10.99 c -4.08 8.05 -7.15 18.29 -10.65 29.18 c -6.1 22.18 -9.63 48.41 -10.79 71.92 c -0.03 7.29 1.81 12.07 1.78 19.29 c -0.49 3.41 -0.57 6.8 -0.72 10.22 c 0.54 7.21 1.34 17.86 1.64 21.73 c 0.28 6.82 0.63 15.32 2.16 24.43 z m 22.88 32.83 c 0.85 2.41 1.42 4.61 2.07 6.88 l 0.03 0.01 c -0.61 -2.12 -1.27 -4.33 -2.1 -6.89 z m -9.18 46.41 c -0.53 -2.73 -3.38 -8.09 -4.95 -12.21 c 0 0 0.63 2.38 1.32 4.74 c 0.69 2.37 1.39 4.75 1.39 4.75 c 0.79 1.37 0.67 0.01 2.24 2.72 z m 137.42 -362.89 c 2.51 -1.38 -1.68 -1.2 -7.09 -0.75 c -5.54 1.52 7.95 -1.53 4.15 0.8 c 1.34 -0.18 2.42 -0.29 2.94 -0.05 z m -3.18 0.22 l 0.24 -0.17 c -0.99 0.13 -2.08 0.28 -3.43 0.37 l 0.07 0.1 z m 4.49 2.12 c -2.81 -0.5 -7.66 -0.48 -7.61 -1.82 l -6.56 0.63 c 6.33 0.01 8.13 0.86 11.06 1.4 c -3.24 0.58 -8.49 0.99 -7.2 -0.05 l -4.53 1.59 z m -13.64 -3.38 c -1.72 -2.29 -7.41 1.33 -13.65 1.03 l -2.25 0.96 c 0 0 4 -0.57 7.99 -1.13 c 1.97 -0.28 3.94 -0.57 5.42 -0.78 c 1.47 -0.21 2.49 -0.09 2.49 -0.08 z m -22.76 11.16 c 0.04 -0.3 -1.21 -0.06 -2.62 0.23 c 0.35 0.15 1.02 0.17 2.62 -0.23 z m -2.62 0.23 c -1.44 -0.61 4.3 -4.32 -6.4 -0.57 c 3 -1.09 6.15 -1.56 5.06 -0.25 l -3.09 1.1 c -0.64 0.85 2.16 0.19 4.43 -0.28 z m -69.03 44.97 l 0.22 -0.32 l -0.03 0.02 c -4.29 1.71 -9.25 12.26 -14.9 18.75 l 1.17 2.35 c 2.61 -4.85 4.47 -7.48 6.37 -10.21 c 1.97 -2.91 3.88 -5.72 7.17 -10.59 z m -52.6 171.41 c -0.54 5.74 -0.12 12.89 0.57 16.14 c -0.32 -5.91 0.28 -11.11 -0.57 -16.14 z m -0.53 28.38 c -0.05 -5.49 -0.03 -10.41 0.42 -11.15 l -0.99 -6.23 c -0.37 -0.2 0.3 9.21 0.57 17.38 z m 0.68 -59.84 c -0.34 3.63 -0.67 8.07 -0.99 10.74 c -0.19 2.69 -0.42 3.63 -1 0.26 c -0.06 11.89 1.47 0.99 2.18 8.85 c -0.43 -3.23 -0.28 -6.1 0.05 -8.85 c 0.5 -2.75 1.13 -5.37 1.49 -8.2 c -0.57 -0.43 -3.55 16.06 -1.73 -2.8" stroke-linecap="round" />
</g>
		<g transform="matrix(0.17057197696737042 0 0 -0.17057197696737042 -201.50879278938837 -11.976868809980772)"  >
<path style="stroke: none; stroke-width: 1; stroke-dasharray: none; stroke-linecap: butt; stroke-dashoffset: 0; stroke-linejoin: miter; stroke-miterlimit: 10; fill: rgb(217,217,216); fill-rule: nonzero; opacity: 1;"  paint-order="stroke"  transform=" translate(-443.97850000000005, -1562.495)" d="m 438.684 1563.4 l -0.086 0.02 l -0.059 0.03 c 1.082 -0.2 0.793 -0.11 0.492 -0.02 l 0.821 -0.14 l 0.671 -0.05 l 0.247 -0.08 l 0.343 0.01 l 1.84 -0.35 c 1.27 -0.23 2.813 -0.5 4.156 -0.75 l 0.504 -0.12 l 0.887 -0.14 l 0.398 -0.08 l -0.398 0.08 l 0.031 0.03 l 0.578 -0.11 l -0.015 -0.05 l 0.324 -0.06 l -0.324 0.05 l -0.324 0.06 l -0.579 0.1 l 0.325 -0.08 l -0.586 0.08 c -0.989 0.18 -0.563 0.18 -1.469 0.31 l 0.238 -0.06 l -0.918 0.11 c 1.149 -0.24 -0.91 0.11 0.649 -0.19 c 0.73 -0.2 -0.524 -0.07 1.113 -0.46 c -1.074 0.19 -3.137 0.55 -4.461 0.79 l 0.578 -0.12 l -0.578 0.08 l -0.324 0.1 l -1.477 0.29 l -0.586 0.06 l -0.23 0.05 l -1.84 0.62 l 0.059 -0.01" stroke-linecap="round" />
</g>
		<g transform="matrix(0.17057197696737042 0 0 -0.17057197696737042 -200.57289259744982 -11.473137523992278)"  >
<path style="stroke: none; stroke-width: 1; stroke-dasharray: none; stroke-linecap: butt; stroke-dashoffset: 0; stroke-linejoin: miter; stroke-miterlimit: 10; fill: rgb(217,217,216); fill-rule: nonzero; opacity: 1;"  paint-order="stroke"  transform=" translate(-449.4662684808792, -1559.541493371923)" d="m 457.828 1558.25 l -1.238 0.24 c -1.625 -0.08 -1.172 -0.62 -0.406 -1.25 l 0.296 -0.23 l 0.153 -0.12 l 0.078 -0.06 l 0.016 -0.01 h 0.003 l -13.761 2.58 v 0.01 h -0.008 l -0.035 0.04 l -0.555 0.46 l -0.281 0.79 l -4.61 0.84 c 2.84 -0.26 4.559 -0.41 7.899 -0.7 l 0.793 -0.24 c 2.566 -0.4 4.242 -0.49 3.68 -0.26 l -1.192 0.21 c -0.707 -0.05 -0.39 0.09 -3.695 0.64 l -0.613 0.08 l -0.582 0.13 l 0.613 -0.09 l -1.848 0.32 l -0.121 0.07 c -3.262 0.64 -6.074 1.19 -9.734 1.91 c 0.465 -0.07 4.054 -0.77 2.879 -0.45 l -1.188 0.22 l 2.149 -0.3 l -1.551 0.35 l 1.101 -0.11 l 2.434 -0.44 c -0.875 0.35 1.984 0.04 0.223 0.56 c 2.351 -0.4 -0.75 0.28 1.242 0.01 l 2.59 -0.53 c 3.484 -0.77 1.593 -0.67 2.812 -1.09 l 1.383 -0.25 l 0.918 -0.06 l 2.426 -0.44 c 8.496 -1.67 -1.883 0.02 -0.645 -0.28 c 2.34 -0.57 5.199 -0.88 4.863 -0.88 c 3.262 -0.46 5.997 -1.26 8.821 -1.85 c 5.613 -1.24 2.699 -1.09 2.496 -1.29 c -6.082 0.74 0.008 -0.93 -0.172 -1.26 c 0.34 -0.16 -1.797 0.13 -3.074 0.25 l -0.231 0.03 h -0.015 c -8.215 1.54 -16.403 3.08 -24.563 4.61 l 0.024 -0.01 h 0.058 l 0.094 -0.01 l 0.316 -0.01 l 0.11 0.04 c -0.211 0.09 -1.047 0.28 -2.93 0.67 l -1.473 0.6 l -1.382 0.26 c -0.391 0.4 3 0.11 4.074 0.21 c 0.332 0.07 3.918 -0.56 0.043 0.22 c -2.504 0.74 2.785 0.05 3.289 0.22 c 1.234 -0.24 2.539 -0.49 3.203 -0.62 c -1.566 0.16 1.5 -0.56 4.863 -1.2 l -0.316 0.11 l 2.711 -0.6 l -1.074 0.15 l 2.003 -0.4 c 1.184 -0.27 4.125 -0.96 6.133 -1.43 c -0.922 0.1 -1.125 0.06 0.504 -0.36" stroke-linecap="round" />
</g>
		<g transform="matrix(0.17057197696737042 0 0 -0.17057197696737042 -170.98748760704675 3.203937332053812)"  >
<path style="stroke: none; stroke-width: 1; stroke-dasharray: none; stroke-linecap: butt; stroke-dashoffset: 0; stroke-linejoin: miter; stroke-miterlimit: 10; fill: rgb(217,217,216); fill-rule: nonzero; opacity: 1;"  paint-order="stroke"  transform=" translate(-622.9374999999999, -1473.483861012492)" d="m 611.383 1470.94 l -0.86 3.79 c -0.972 4.46 -1.941 8.93 -2.906 13.35 c -1.176 7.77 -3.66 19.4 -7.742 33.89 c -4.125 14.45 -9.781 31.87 -18.223 50.26 c 0.219 0.08 2.258 -2.79 -3.867 10 c -7.414 14.07 -13.277 21.63 -17.297 26.39 c -4.07 4.7 -6.32 6.79 -8.187 8.52 c -1.867 1.73 -3.383 3.12 -6.516 5.31 c -1.578 1.03 -3.555 2.34 -6.297 3.5 c -2.793 1.22 -5.957 2.24 -11.398 3.06 c 1.601 -0.22 3.246 -0.49 4.93 -0.82 c 1.449 -0.37 2.933 -0.66 4.371 -1.2 c 2.89 -0.98 5.742 -2.29 8.308 -3.91 c 5.207 -3.08 9.321 -7.08 11.715 -9.22 c 0 0 -0.902 0.89 -2.48 2.45 c -1.625 1.47 -3.934 3.61 -6.926 5.64 c -6.008 4.38 -14.059 7.35 -24.613 7.96 c -9.977 0.79 -19.411 -1.34 -25.747 -4.54 c -6.375 -3.13 -9.968 -6.54 -9.968 -6.54 c 3.836 3.78 7.941 6.37 9.515 7.49 c 1.621 1 0.403 1.25 -5.382 -2.02 c 3.144 2.6 -1.286 1.34 -7.192 -2.79 c -5.965 -4 -12.5 -11.67 -15.812 -16.2 c 7.914 14.17 18.171 21.89 23.132 24.76 c -1.007 -0.28 -4.882 -2.14 -9.773 -6.27 c -4.891 -4.1 -10.582 -10.67 -15.316 -19.03 c 0.605 1.34 1.277 2.82 2.742 5.3 c -1.465 -2.48 -2.137 -3.96 -2.742 -5.3 c -6.282 -10.91 -10.914 -24.61 -13.497 -37.54 c 1.293 7.31 3.348 14.46 2.071 11.01 c 0 0 3.535 13.59 10.258 25.69 c 3.289 6.07 7.324 11.65 10.765 15.43 c 3.41 3.8 6.059 5.92 6.059 5.92 c 1.262 1.22 -0.188 0.24 -2.649 -1.94 c 0 0 2.59 2.39 5.454 4.4 c 2.828 2.06 5.902 3.68 5.902 3.68 l -8.5 -6.41 c -2.59 -2.69 2.726 2.3 8.945 5.58 c 6.16 3.39 10.442 4.59 13.817 5.53 c 3.406 0.88 6.007 1.36 9.472 1.71 c 0 0 7.106 0.38 14.137 -0.81 c 3.551 -0.52 6.992 -1.34 9.43 -2.14 c 2.472 -0.81 4.047 -1.56 4.047 -1.56 c 2.265 -1.34 -0.692 0.14 -6.075 1.45 c -5.433 1.27 -13.675 2.2 -20.554 1.69 c -6.938 -0.4 -12.508 -2.17 -13.684 -2.67 c -1.152 -0.74 1.762 1.08 12.844 1.89 c 0 0 3.41 0.32 6.875 0.22 c 3.453 -0.05 6.922 -0.47 6.922 -0.47 c 5.254 -0.79 10.484 -1.92 15.496 -4.5 c 5.019 -2.47 9.746 -5.93 13.886 -9.81 c 8.309 -7.81 14.254 -17.04 17.762 -23.34 c 6.262 -8.86 12.867 -23.07 17.528 -35.58 c 4.726 -12.5 7.906 -23.15 9.226 -24.69 c 10.098 -31.01 17.777 -66.94 23.359 -104.06 c 2.786 -18.57 5.071 -37.44 6.801 -56.22 c 0.875 -9.39 1.598 -18.76 2.172 -28.05 c 0.254 -5.04 0.512 -10.05 0.766 -15.04 c 0.152 -5.59 0.308 -11.14 0.461 -16.66 l 0.886 -0.26 l 1.227 0.13 l 2.434 0.29 l 4.847 0.59 c 3.238 0.41 6.461 0.83 9.664 1.24 c 5.563 0.69 11.059 1.38 16.485 2.05 c 10.394 1.22 20.531 2.25 30.332 3.12 c 14.531 -0.35 14.675 -1.93 50.691 -2.8 c 7.188 0.22 18.102 0.2 14.414 0.51 c 0 0 6.305 -0.31 12.61 -0.62 c 6.292 -0.43 12.582 -0.87 12.582 -0.87 c -14.399 0.84 -32.418 1.14 -39.606 0.64 c 39.606 -0.7 -17.953 -0.82 -14.402 -1.75 c 0 0 13.504 0.19 26.976 -0.17 c 13.477 -0.31 26.903 -1.22 26.903 -1.22 l -6.336 0.07 c -24.188 0.99 -48.461 0.6 -72.672 -0.89 c -12.102 -0.75 -24.199 -1.78 -36.27 -3.07 l -18.949 -2.23 c -9.785 -1.26 -19.715 -2.61 -28.988 -3.16 c -0.215 10.1 -0.379 20.38 -0.887 30.49 c -0.359 6.81 -0.754 12.48 -1.238 18.79 c -0.977 12.31 -2.203 24.62 -3.668 36.9 c -2.926 24.55 -6.735 49.01 -11.57 73.16 l -0.43 2.52" stroke-linecap="round" />
</g>
		<g transform="matrix(0.17057197696737042 0 0 -0.17057197696737042 3.302339648231566 6.087292418426159)"  >
<path style="stroke: none; stroke-width: 1; stroke-dasharray: none; stroke-linecap: butt; stroke-dashoffset: 0; stroke-linejoin: miter; stroke-miterlimit: 10; fill: rgb(217,217,216); fill-rule: nonzero; opacity: 1;"  paint-order="stroke"  transform=" translate(-1644.8706235433835, -1456.5770800197379)" d="m 1632.3 1569.13 l -1.66 0.15 c 19.84 -28.4 33.99 -61.27 42.58 -95.74 c 8.68 -34.51 12.21 -70.54 12.22 -106.74 c 0.02 -36.23 -3.48 -72.72 -9.04 -109.1 c -2.64 -18.12 -6.34 -36.55 -8.71 -54.25 c -0.56 -3.36 -0.28 -6.58 1.83 -9.08 c 1.01 -1.28 2.03 -2.2 3.49 -3.27 c 1.51 -1.13 3.26 -2.14 5.07 -3.08 c 7.34 -3.75 15.85 -6.25 24.42 -8.31 c 34.67 -7.8 71.34 -10.22 108 -12.42 c 36.76 -1.99 73.97 -2.91 111.5 -3.51 c 75.1 -1.29 151.34 -1.05 228.63 2.25 c 77.26 3.21 155.51 8.7 234.21 17.68 c 39.31 4.56 78.86 9.92 118.04 17.16 c 39.06 7.51 77.71 18.57 115.83 31.76 c 38.12 13.22 75.76 28.6 112.69 45.84 c 9.15 4.28 18.59 8.85 27.3 13.29 l 4.33 2.28 c 1.36 0.8 2.82 1.95 3.02 3.69 c 0.19 1.68 -0.39 3.31 -0.87 4.89 l -1.9 5.61 c -7.07 20.98 -8.72 43.35 -8.14 64.91 c 0.36 10.88 1.22 21.91 4.06 33.05 c 2.66 10.99 8.6 22.7 17.97 30.28 c 9.08 7.56 19.02 11.81 26.49 17.17 c 6.48 4.4 6.61 10.89 3.02 20.23 c -7.2 17.74 -20.39 35.69 -31.85 51.72 l -2.85 3.86 l -0.71 0.96 l -1.1 -0.07 l -2.31 -0.49 l -13.06 -2.68 l -34.21 -7.04 c -14.67 15.44 -29.49 31.05 -44.32 46.67 l 36.41 19.95 l 10.3 5.66 l -0.12 0.84 l -0.98 0.91 l -1.97 1.83 l -3.98 3.6 c -4.72 4.25 -15.64 13.58 -24.52 20.74 c -9.28 7.53 -18.74 14.87 -28.32 22.03 c -38.34 28.58 -78.66 54.64 -120.82 76.61 c -10.56 5.46 -21.24 10.62 -32.06 15.4 c -5.41 2.38 -10.85 4.67 -16.32 6.84 l -8.21 3.15 c -0.96 0.41 -1.36 0.45 -2.79 0.64 l -4.28 0.54 c -22.94 2.58 -46.56 1.77 -70.02 -0.21 c -46.98 -4.23 -93.79 -13.34 -139.81 -24.66 c 0.29 5.25 0.58 10.48 0.87 15.72 c 89.24 -33.6 178.03 -67.04 266.34 -100.29 l -5.26 -15.87 c -79.1 26.01 -157.14 51.69 -234.63 77.18 l 22.57 -12.49 c -31.26 10.62 -63.03 21.42 -96.19 32.69 c -6.71 1.12 -13.44 2.25 -20.19 3.37 l -10.59 1.79 l -5.14 0.88 l -0.5 0.06 l -1.26 0.1 l -2.67 0.19 c -14.22 0.98 -28.51 1.83 -42.85 2.5 c -28.69 1.34 -57.58 2 -86.55 1.82 c -57.91 -0.39 -116.23 -3.86 -173.21 -12.81 l -16.47 -2.77 c -3.71 -0.68 -7.49 -1.41 -11.32 -2.24 l -5.78 -1.33 l -1.45 -0.36 l 1.06 -0.74 l 2.37 -1.53 l 9.68 -6.26 c 22.48 -14.32 44.8 -28.52 66.88 -42.58 c 48.06 -30.66 95.07 -60.63 140.35 -89.5 l -5.57 -9.99 c -18.41 10.7 -35.09 20.38 -51.51 29.91 l 52.09 -28.83 l 4.4 7.91 l -35.32 21.52 c 9.78 -6.41 21.44 -14.04 34.64 -22.69 l -3.12 -5.59 c -47.03 27.75 -113.19 66.04 -181.49 105.16 c -17.09 9.76 -34.3 19.59 -51.36 29.35 c -17.18 9.5 -33.6 20.32 -51.56 26.48 c -35.51 13.31 -71.19 19.59 -102.58 22.7 l 14.03 -2.88 c 49 -6.9 71.53 -15.86 80.26 -18.68 c 8.68 -3.24 3.63 -1.46 -4.98 1.17 c -8.61 2.65 -20.92 5.68 -26.3 6.47 c -5.42 0.7 -3.64 0.09 15.22 -6.13 c 0 0 8.13 -2.51 16.08 -5.49 c 7.97 -2.92 15.7 -6.36 15.7 -6.36 c 0 0 -4.61 1.79 -9.3 3.38 c -4.71 1.52 -9.42 3.04 -9.42 3.04 c 0 0 -7.97 2.89 -16.11 5.35 c -8.12 2.5 -16.38 4.59 -16.38 4.59 c 1.78 -0.81 1.92 -1.24 5.46 -2.5 c 3.76 -1.23 10.59 -3.44 25.66 -8.34 c 0 0 -10.67 3.57 -21.59 6.39 c -10.9 2.88 -21.98 5.09 -21.98 5.09 c -23.98 4.01 -42.23 5.07 -55.7 5.45 c -13.49 0.32 -22.25 -0.18 -27.59 -0.79 c -10.68 -1.32 -7.7 -3.11 -1.77 -5.21 c -12.56 0.59 -12.28 1.61 -22.29 2.46 c -5.01 0.41 -12.6 0.71 -25.69 0.36 c -13.08 -0.43 -31.67 -1.5 -58.48 -5.18 l 14.16 0.39 c 0 0 -29.45 -2.56 -58.74 -7.45 c -29.3 -4.71 -58.32 -11.53 -58.32 -11.53 c 0 0 -13 -3.66 -26.02 -7.32 c -13.03 -3.56 -26.05 -7.12 -26.05 -7.12 c -21.13 -4.59 -38.65 -8.14 -56.44 -11.45 c -17.82 -3.26 -35.92 -6.44 -58.51 -9.03 l -13.92 1.36 c -50.82 -4.04 -104.28 2.78 -157.95 11.07 c -53.7 8.64 -109.309 17.69 -164.152 34.47 c -27.489 8.43 -53.621 19.64 -79.485 28.75 c -12.91 4.58 -26.148 8.92 -38.976 12.67 c -12.34 3.51 -25.246 5.33 -38.215 6 c -26.008 1.32 -52.18 -1.75 -77.442 -6.68 c -25.3 -4.97 -49.812 -11.9 -73.312 -19.66 c -10.543 -2.73 -24.672 -7.22 -41.516 -13.33 c -8.425 -3.06 -17.523 -6.51 -27.242 -10.28 c -4.875 -1.89 -9.91 -3.84 -15.074 -5.85 c -2.93 -1.11 -4.41 -1.71 -6.422 -2.8 c -1.91 -1.04 -3.809 -2.31 -5.676 -3.77 c -7.488 -5.89 -14.297 -14.9 -20.179 -25.19 c -5.907 -10.32 -10.985 -21.99 -15.508 -34.29 c -9.008 -24.65 -15.93 -51.89 -21.367 -79.59 c 0 0 1.429 12.08 3.441 24.11 c 1.941 12.04 4.5 23.96 4.5 23.96 c 3.586 14.84 8.469 32.05 16.109 50.12 c 3.836 9 8.399 18.21 14.184 26.9 c 5.77 8.61 12.898 16.86 21.793 21.94 c 4.082 2.36 10.09 4.22 15.629 6.53 c 5.605 2.18 11.297 4.39 17.07 6.64 c 11.528 4.45 23.395 8.89 35.57 13.18 c 24.36 8.56 50.008 16.58 76.598 22.84 c 26.567 6.22 54.137 10.77 81.817 11.33 c 13.824 0.24 27.652 -0.56 41.132 -2.9 c 6.774 -1.16 13.305 -2.77 19.911 -4.78 c 6.695 -2.02 13.355 -4.11 19.953 -6.29 c 26.453 -8.53 51.859 -19.17 77.449 -27.89 c 25.558 -8.72 50.898 -15.03 74.93 -20.07 l -7.215 3.08 c -20.071 4.77 -37.207 9.69 -55.285 15.72 c -18.094 5.95 -36.93 13.52 -60.864 22.07 l -11.707 6.93 c 21.098 -4.72 51.707 -17.11 88.25 -27.45 c 36.598 -10.37 79.311 -19.02 121.711 -26.76 c 42.43 -7.68 84.5 -14.96 120.7 -18.19 c 36.19 -3.43 66.37 -1.83 83.96 0.55 c 37.36 5.25 49.48 9.38 48.39 9.52 c -1.14 0.43 -15.71 -1.94 -32.73 -3.88 c -34.07 -4.38 -77.95 -3.33 -42.37 -2.7 c -20.49 -0.54 -33.72 0.49 -41.02 1.15 c -7.3 0.73 -8.7 1.27 -5.57 1.48 c 6.25 0.55 30.61 -0.28 61.8 3.22 c 31.21 3.3 69.25 11.86 103.8 20.7 c 34.68 8.71 65.3 17.54 82.63 22.32 c 36.06 9.45 81.11 18.65 132.69 22.74 c 51.47 3.94 109.74 3.05 169.7 -11.05 c 14.97 -3.57 30 -8 44.96 -13.72 c 7.56 -2.98 14.78 -5.8 22.59 -10.06 c 6.69 -3.77 13.4 -7.55 20.14 -11.34 c 26.92 -15.21 54.18 -30.6 81.47 -46.03 c 54.54 -30.92 109.22 -61.93 161.68 -91.67 c -5.4 -9.7 -10.8 -19.39 -16.15 -28.98 c -66.52 41.62 -129.31 80.91 -183.34 114.71 c -3.85 2.47 -7.7 4.96 -11.57 7.44 c -5.31 3.46 -10.64 6.94 -15.99 10.43 c -13.64 8.96 -27.37 17.99 -41.18 27.07 l -10.27 6.74 l -5.12 3.36 l 0.69 0.53 l 1.51 0.39 l 3.01 0.77 c 7.85 2.01 15.73 4.02 23.62 6.04 c 7.79 2 15.72 4 24.01 5.79 c 8.12 1.79 17.1 3.53 24.89 4.91 c 38.98 6.73 77.66 10.67 117.7 13.09 c 39.88 2.38 80.41 3.02 121.34 2.25 c 20.45 -0.39 41.01 -1.12 61.63 -2.19 l 15.48 -0.86 l 7.91 -0.48 c 0.95 0 2.52 -0.32 2.98 -0.38 l 1.9 -0.31 l 3.81 -0.61 c 10.5 -1.65 21.02 -3.31 31.56 -4.98 c 102.51 -33.44 206.66 -67.41 309.24 -100.86 c -2.98 -9.01 -5.97 -18.03 -8.94 -26.99 c -90.91 33.86 -180.58 67.24 -266.69 99.31 l -47.09 17.53 l 48.74 12.05 c 56.53 13.98 112.3 24.61 167.88 27.24 c 13.91 0.55 27.81 0.53 41.78 -0.59 c 3.49 -0.29 6.98 -0.63 10.49 -1.08 l 6.73 -0.94 l 6.26 -2.33 c 6.36 -2.39 12.6 -4.96 18.74 -7.61 c 24.56 -10.6 47.53 -22.72 69.32 -35.39 c 32.17 -18.57 66.55 -41.69 100.94 -68.59 c 8.59 -6.73 17.19 -13.71 25.73 -20.95 c 4.43 -3.84 8.88 -7.69 13.34 -11.56 l 9.13 -8.23 c 3.64 -3.42 7.63 -6.8 10.55 -10.27 l 4.72 -5.17 c 1.1 -0.91 0.94 -1.61 1 -2.35 l 0.16 -2.21 c 0.07 -1.47 0.34 -2.96 0.24 -4.4 l -4.03 -3.74 c -5.49 -5.06 -11.89 -10.43 -18.75 -14.94 c -3.42 -2.27 -6.91 -4.33 -10.34 -6.2 l -1.67 -0.89 l -0.41 -0.2 l -0.83 -0.39 l -3.56 -1.69 l 1.81 -2.15 l 0.97 -1.14 l 0.49 -0.58 l 1.09 -1.21 l 8.6 -9.31 l 2.51 -2.77 l 1.11 -1.27 l 1.55 0.24 l 3.33 0.6 l 11.8 2.27 c 9.48 1.83 18.9 3.66 28.27 5.47 l 4.94 0.97 l 2.32 0.08 l 1.52 -2.09 l 6.03 -8.3 c 2.86 -4.01 5.7 -8.01 8.53 -11.99 c 4.63 -6.66 9.15 -13.38 13.48 -20.28 c 4.31 -6.93 8.46 -13.99 12.11 -21.79 c 1.8 -3.91 3.48 -8.05 4.79 -12.71 c 1.21 -4.6 2.3 -10.13 1.39 -16.67 c -0.84 -6.26 -3.85 -12.03 -8.1 -16.4 c -2.11 -2.16 -4.18 -3.83 -6.15 -5.14 c -1.93 -1.32 -3.4 -2.22 -5.1 -3.26 c -6.57 -3.98 -12.64 -7.16 -17.11 -10.56 c -4.52 -3.38 -7.53 -6.93 -9.88 -11.48 c -2.33 -4.52 -3.89 -9.94 -4.93 -15.61 c -2.04 -11.38 -2.23 -23.51 -1.88 -34.73 c 0.4 -11.21 1.69 -21.52 3.84 -30.61 c 1.07 -4.56 2.35 -8.79 3.82 -12.81 c 0.91 -2.39 1.79 -4.73 2.66 -7.02 c 1.46 -3.84 2.84 -7.71 3.42 -11.42 c 0 0 0.53 -2.48 -0.03 -6.91 c -0.55 -4.51 -3.36 -11.03 -10.62 -15.7 c -1.81 -1.23 -3.95 -2.32 -6.15 -3.49 c -1.71 -0.87 -3.51 -1.8 -5.38 -2.76 c -2.7 -1.35 -5.61 -2.81 -8.73 -4.38 c -6.26 -2.99 -13.32 -6.37 -21.02 -10.07 c -30.9 -14.45 -72.74 -32.13 -115.75 -46.87 c -42.95 -14.9 -87.15 -26.45 -121.02 -32.48 c -33.45 -5.99 -55.73 -8.98 -55.73 -8.98 l 7.79 -0.37 c -86.88 -12.46 -176.26 -19.7 -266.53 -23.96 c -90.19 -4.34 -181.59 -4.54 -271.65 -2.34 c -45.13 1.07 -90.11 2.52 -135 6.13 c -22.45 1.88 -44.85 4.2 -67.47 8.49 c -11.34 2.24 -22.7 4.83 -34.57 9.54 c -2.97 1.2 -6.01 2.61 -9.1 4.32 c -1.55 0.84 -3.14 1.83 -4.72 2.89 l -2.42 1.76 l -2.9 2.48 c -3.73 3.47 -6.75 7.7 -8.55 12.48 c -1.88 4.71 -2.06 10.13 -1.54 14.99 c 0.8 7.3 1.73 12.23 2.69 18.03 l 2.86 16.51 c 1.88 10.9 3.65 21.7 5.2 32.47 c 3.13 21.54 5.42 42.95 6.62 64.18 c 2.37 42.41 0.36 84.27 -8.32 123.43 c -7.6 34.21 -18.77 60.79 -30.7 81.81 c -12.07 20.87 -24.67 36.95 -36.96 48.59 c -12.47 11.71 -25.09 19.66 -38.06 25.18 c -13.01 5.46 -26.44 8.54 -41.17 9.1 c -43 4.19 -88.87 -11.43 -124.91 -40.85 c -36.25 -29.24 -62.53 -72.98 -69.34 -121.11 c -3.54 -24.11 -2.42 -48.6 2.8 -73.22 c 5.06 -25.54 10.78 -50.93 17.53 -75.9 c 6.77 -24.94 14.54 -49.54 24.2 -72.88 c 4.84 -11.64 10.18 -22.97 16.29 -33.46 c 3.05 -5.23 6.3 -10.25 9.78 -14.78 c 1.73 -2.27 3.53 -4.39 5.33 -6.28 c 0.89 -0.94 1.8 -1.81 2.65 -2.56 l 1.2 -0.99 l 0.46 -0.33 l 0.12 -0.08 l -0.45 -0.8 l -1.08 -1.94 c 0.76 1.52 -3.54 -6.75 1.43 2.78 l -0.36 0.19 l -8.62 -23.58 c -95.14 27.18 -189.73 49.74 -278.78 63.13 c 1.19 1.1 -36.29 7.91 13.81 1.32 c 101.5 -16.99 213.13 -44.36 266.93 -57.23 l 3.51 9.61 c -1.06 0.49 -3.28 2.15 -4.74 3.45 c -1.61 1.38 -3.09 2.83 -4.45 4.23 c -2.72 2.8 -4.96 5.44 -6.81 7.64 c -3.68 4.44 -5.83 7.17 -6.58 7.46 c 3.07 -4.83 6.32 -9.53 9.9 -13.88 c 3.48 -4.23 7.68 -8.68 11.65 -11.1 l -1.84 -5.04 l -17.92 4.83 l 18.03 -4.43 l 1.57 4.3 c -4.66 2.68 -9.3 7.6 -13.26 12.31 c -4.04 4.85 -7.7 10.06 -11.14 15.45 c -6.86 10.78 -12.78 22.24 -18.2 33.93 c 0 0 -5.84 14.36 -10.66 29.1 c -4.91 14.69 -9.06 29.63 -9.06 29.63 c -5.33 14.92 -7.71 21.65 -8.55 22.54 c -7.21 25.64 -13.3 50.71 -18.75 75.57 c -5.41 25.04 -6.84 50.83 -3.46 76.28 c 6.57 50.86 32.67 100.27 76.24 135.82 c 15.78 12.06 33.66 22.43 53.7 30.09 c 20.02 7.63 42.3 12.58 66.25 12.67 c 23.86 0.1 49.56 -4.96 73.98 -17.63 c 12.18 -6.32 23.99 -14.47 34.86 -24.44 c 10.94 -10.02 20.72 -21.63 29.91 -34.32" stroke-linecap="round" />
</g>
		<g transform="matrix(0.17057197696737042 0 0 -0.17057197696737042 -99.25752983353425 -48.723402399232214)"  >
<path style="stroke: none; stroke-width: 1; stroke-dasharray: none; stroke-linecap: butt; stroke-dashoffset: 0; stroke-linejoin: miter; stroke-miterlimit: 10; fill: rgb(217,217,216); fill-rule: nonzero; opacity: 1;"  paint-order="stroke"  transform=" translate(-1043.5199658133536, -1777.955)" d="m 1003.12 1797.63 l -1.23 -0.79 l -4.421 -2.52 c -1.485 -0.41 -2.965 -1.31 -4.781 -2.38 c -1.723 -1.13 -4.047 -2.31 -5.852 -4.08 c -4.152 -3.2 -8.145 -7.97 -9.789 -12.65 c -0.207 0.11 -0.531 1.09 -1.508 -2.24 c -0.656 -7.37 2.449 -9.86 2.547 -11.44 c 1.027 -1.63 0.68 -2.9 6.098 -9.39 c -3.672 3.81 -7.028 8.9 -7.907 10.72 c 0 0 0.512 -1.58 2.121 -3.95 c 1.372 -2.4 3.989 -5.5 6.829 -8.49 c 5.789 -6.01 13.132 -11.04 13.132 -11.04 c -4.25 2.27 -7.902 4.1 -3.441 0.14 c -3.73 1.03 4.941 -7.27 8.332 -10.75 c -5.734 3.28 -10.07 6.21 -12.141 7.55 c 0.375 -0.97 5.266 -5.04 11.951 -9.12 c -0.58 0.17 -1.21 0.4 -2.27 0.91 c 1.06 -0.51 1.69 -0.74 2.27 -0.91 c 4.34 -2.71 9.45 -5.46 14.18 -7.63 c -2.7 1.06 -5.45 2.31 -4.24 1.39 c 0 0 -4.99 2.53 -9.78 5.42 c -4.818 2.85 -9.415 6.07 -9.415 6.07 c -0.668 0.3 -0.129 -0.2 0.937 -1.04 c 0 0 -1.176 0.85 -2.285 1.8 c -1.117 0.93 -2.238 1.85 -2.238 1.85 l 3.773 -2.32 c 1.41 -0.67 -0.972 1.17 -3.23 3.09 c -4.617 3.57 -5.844 4.52 -8.18 6.32 l -7.613 9.01 c -0.973 1.99 3.722 -3.95 8.246 -7.69 c 4.43 -3.82 7.617 -6.2 0.758 0.3 c 0 0 -1.11 0.93 -2.223 1.87 c -1.031 0.99 -2.07 2 -2.07 2 c -2.957 3.14 -5.828 7.21 -7.875 11.15 c -0.832 2.03 -1.797 3.94 -2.02 5.76 c -0.519 1.79 -0.562 3.38 -0.414 4.63 c -0.668 1.85 -0.199 4.12 0.094 6.47 c 0.883 2.26 1.625 4.65 3.168 6.58 c 1.156 2.07 2.734 3.7 3.867 5.02 c 1.109 1.32 1.73 2.39 1.738 2.92 c 11.688 11.49 29.832 20.05 48.172 26.63 c 18.48 6.59 37.48 11.74 53.94 16.52 c 6 0.36 6.5 -1.9 21.23 -0.13 c 2.85 0.78 7.21 1.88 5.68 1.82 l 10.31 1.33 c -5.86 -1.01 -13.13 -2.41 -15.93 -3.49 c 16.03 2.88 -7.03 -2.47 -5.49 -2.76 c 0 0 5.45 1.01 10.9 2.01 c 5.48 0.9 10.96 1.78 10.96 1.78 l -2.52 -0.71 c -19.47 -3.9 -38.78 -8.49 -57.6 -14.16 c -18.78 -5.61 -37.47 -12.07 -53.92 -20.97 l -0.85 -0.41" stroke-linecap="round" />
</g>
		<g transform="matrix(0.17057197696737042 0 0 -0.17057197696737042 -32.22962964159569 -54.24578243761991)"  >
<path style="stroke: none; stroke-width: 1; stroke-dasharray: none; stroke-linecap: butt; stroke-dashoffset: 0; stroke-linejoin: miter; stroke-miterlimit: 10; fill: rgb(217,217,216); fill-rule: nonzero; opacity: 1;"  paint-order="stroke"  transform=" translate(-1436.5320000000004, -1810.335)" d="m 1396.13 1869.97 l -0.25 -1.34 c 51.03 7.11 105.06 8.77 160.93 6.39 c 55.88 -2.29 113.65 -8.47 172.5 -17.96 c 117.73 -18.97 239.78 -50.69 361.22 -91.6 c -1.78 -4.3 -3.58 -8.67 -5.39 -13.03 c -37.93 18.94 -78.94 34.14 -120.09 47.35 c -41.34 13.05 -83.39 24.12 -125.75 33.43 c -84.78 18.53 -170.8 29.51 -255.54 35.33 l 9.94 -5.38 c -14 1.11 -28.22 2.24 -42.6 3.38 c -7.21 0.57 -14.45 1.12 -21.72 1.69 c -7.32 0.31 -14.66 0.61 -22.03 0.92 c -29.47 1.16 -59.31 2.33 -88.94 3.49 c -59.12 1.66 -117.46 -0.12 -170.18 -4.03 l 40.73 4.63 c -18.77 -0.59 -52.21 -1.87 -88.13 -5.88 c -18 -1.65 -36.61 -3.95 -54.38 -6.46 c -8.89 -1.24 -17.57 -2.45 -25.87 -3.61 c -8.27 -1.38 -16.14 -2.7 -23.46 -3.93 l 5.96 -0.29 c 80.42 11.44 -5.4 -0.98 27.61 0.38 l 14.04 1.36 l -8.09 -1.77 l -14.05 -1.36 c 1.68 -0.49 0.6 -1.59 13.8 0.02 c 0 0 -4.64 -0.7 -9.29 -1.4 c -4.64 -0.73 -9.28 -1.46 -9.28 -1.46 c -39.4 -9.86 -38.97 -12.79 -33.42 -15.77 c -10.47 -1.31 -0.25 4.56 -44.35 -4.68 l 6 -0.19 c 0 0 -12.21 -1.63 -24.42 -3.25 c -12.19 -1.8 -24.384 -3.59 -24.384 -3.59 l -21.242 -5.82 c -17.359 -2.71 -28.625 -4.28 -46.164 -8.44 l -5.848 1.32 c -27.39 -6.24 -58.324 -13.29 -89.387 -20.37 l -0.792 -0.19 l -0.274 -0.21 l 1.324 -0.45 l 2.715 -0.92 l 5.633 -1.89 c 3.953 -1.28 7.891 -2.55 11.766 -3.81 c 20.82 -6.54 42.097 -13.04 61.726 -18.72 c 16.543 -7.76 59.567 -17.86 102.867 -33.62 l -19.625 3.31 c -24.195 5.68 -63.843 17.68 -107.062 31.11 c -18.891 5.89 -38.578 12.03 -57.738 18 c -7.727 2.38 -15.344 4.71 -22.715 6.98 l -1.422 0.43 l -0.707 0.21 l -0.215 0.21 l 2.609 0.73 c 1.746 0.49 3.473 0.96 5.172 1.44 c 3.442 0.95 6.813 1.88 10.086 2.79 l -5.617 0.09 c -7.606 -1.63 -14.25 -3.05 -21.273 -4.56 l -1.047 -0.32 l 1.031 -0.37 l 2.176 -0.76 c 1.574 -0.53 3.183 -1.06 4.855 -1.62 c 3.485 -1.12 7.52 -2.32 12.149 -3.59 l -0.872 -2.39 c -6.398 0.86 -13.953 2.44 -22.347 4.52 c -4.192 1.11 -8.535 2.26 -13.059 3.46 l -3.375 0.96 l -1.5 0.48 l 1.414 0.43 c 1.977 0.56 3.989 1.15 6.028 1.73 c 16.808 4.72 38.711 9.8 58.324 13.79 c 10.18 2.16 18.027 3.48 26.578 5.06 c 8.324 1.49 16.316 2.91 23.645 4.22 c 14.695 2.53 26.769 4.81 33.828 6.65 c 59.953 15.18 -40.571 -3.12 -11.653 2.66 c -33.543 -5.71 -20.031 -1.09 5.375 6.09 c 12.825 3.38 28.457 7.5 42.7 11.25 c 14.281 3.61 27.136 6.83 34.078 8.95 c 38.869 10.41 101.909 22.76 168.829 31.5 c 66.88 9 137.57 14.15 190.88 15.84 c 11.16 -0.06 22.51 -0.12 34.04 -0.18 c 11.57 0.09 23.24 -0.84 35.12 -1.14 c 23.79 -0.9 48.05 -1.59 72.77 -2.16 c 24.68 -0.2 49.9 -1.87 75.26 -3.18 c 25.39 -0.9 50.81 -3.73 76.19 -5.69 c 101.47 -8.87 200.53 -27.76 279.93 -50.4 c 11.78 -3.48 24.66 -7.36 38.06 -11.92 c 13.32 -4.89 27.38 -9.62 41.34 -15.5 c 28.2 -11.25 56.26 -23.88 82.18 -37.7 l -9.4 -22.7 c -16.1 5.6 -31.28 10.66 -44.8 14.68 c -13.57 3.85 -25.49 6.6 -34.96 8 c 0 0 -34.99 10.39 -70.24 19.63 c -17.62 4.65 -35.27 9.14 -48.57 12.2 c -13.29 3.17 -22.14 5.27 -22.14 5.27 l 2.69 -2.14 c -68.86 16.31 -141.82 30.99 -214.25 40.27 c -72.37 9.06 -144.34 13.01 -209.54 7.98 c -28.44 -2.25 -46.85 -4.22 -61.31 -6.39 c -14.4 -2.25 -24.87 -4.92 -36.34 -10.45 l -2.37 -0.8 l -0.62 -0.25 l -1.03 -0.48 l -1.9 -0.94 c -0.84 -0.62 -3.41 -1.47 -0.85 -2.52 l 4.11 -2.88 l 0.64 -0.5 l 2.22 -1.93 l 4.45 -3.88 l 8.89 -7.82 c 6.11 -5.02 11.49 -11 17.06 -16.79 c 5.71 -5.64 10.84 -11.94 15.91 -18.31 c 5.31 -6.14 9.74 -13.19 14.49 -19.88 c 4.46 -7.25 8.57 -13.83 12.57 -22.67 l -23.68 -13.2 c -1.42 2.23 -3.9 5.59 -6.14 8.38 c -2.38 2.9 -4.78 5.8 -7.42 8.57 c -2.5 2.86 -5.22 5.55 -7.98 8.22 c -2.67 2.75 -5.51 5.33 -8.43 7.84 c -5.6 5.24 -11.82 9.81 -17.78 14.61 c -6.34 4.3 -12.35 9.05 -18.91 12.91 c -25.71 16.27 -53.11 28.46 -79.9 37.53 c 0.77 1.05 -13.58 7.01 6.2 1.48 c 26.76 -9.79 54.54 -22.54 75.33 -34.05 c 20.82 -11.42 34.94 -21.07 36.82 -20.3 c 0 0 -1.02 0.9 -2.67 2.07 c -1.63 1.2 -3.81 2.8 -5.99 4.4 c -2.18 1.59 -4.35 3.19 -5.99 4.38 c -1.7 1.1 -2.83 1.84 -2.83 1.84 c 0 0 2.16 -1.1 5.17 -3.1 c 3.05 -1.98 7.1 -4.62 11.16 -7.26 c 3.93 -2.86 7.86 -5.72 10.81 -7.87 c 2.95 -2.16 4.77 -3.78 4.77 -3.78 c 0 0 1.09 -1.13 2.73 -2.83 c 1.67 -1.66 3.81 -3.95 5.84 -6.36 c 4.22 -4.65 7.99 -9.66 7.99 -9.66 c 4.73 -4.34 6.93 -6.33 7.62 -6.37 l 1.85 -2.52 l -1.88 -1.04 c -9.81 18.42 -22.91 33.32 -36.48 47.34 c -3.6 3.3 -7.23 6.62 -10.88 9.95 c -3.62 3.36 -7.24 6.72 -11.32 9.67 c -3.96 3.08 -7.96 6.19 -12 9.34 c -4.82 3.69 -9.71 7.42 -14.68 11.22 c -3.78 3.19 -7.61 6.44 -11.52 9.75 c -1.96 1.63 -3.93 3.28 -5.92 4.95 l -3.01 2.49 l -0.72 0.63 l 0.79 0.65 l 1.58 1.3 c 4.25 3.28 8.32 6.07 13.19 8.78 c 2.62 1.24 5.1 2.64 7.89 3.82 c 2.9 1.11 5.83 2.25 8.81 3.39 c 3.03 1.12 6.29 2.09 8.36 2.77 c 2.38 0.8 4.8 1.52 7.27 2.19 c 4.93 1.45 10.03 2.81 15.32 4.09 c 10.57 2.67 21.88 5.02 34.06 7.4" stroke-linecap="round" />
</g>
		<g transform="matrix(0.17057197696737042 0 0 -0.17057197696737042 -183.73098088919645 10.97818685220733)"  >
<path style="stroke: none; stroke-width: 1; stroke-dasharray: none; stroke-linecap: butt; stroke-dashoffset: 0; stroke-linejoin: miter; stroke-miterlimit: 10; fill: rgb(217,217,216); fill-rule: nonzero; opacity: 1;"  paint-order="stroke"  transform=" translate(-548.217000395992, -1427.9)" d="m 554.266 1289.4 c 35.273 1.54 61.164 64.8 57.824 141.29 c -3.34 76.49 -34.645 137.25 -69.918 135.71 c -35.277 -1.54 -61.168 -64.8 -57.828 -141.29 c 3.34 -76.49 34.644 -137.25 69.922 -135.71" stroke-linecap="round" />
</g>
		<g transform="matrix(0.17057197696737042 0 0 -0.17057197696737042 -190.1491382788318 9.91343445297511)"  >
<path style="stroke: none; stroke-width: 1; stroke-dasharray: none; stroke-linecap: butt; stroke-dashoffset: 0; stroke-linejoin: miter; stroke-miterlimit: 10; fill: rgb(217,217,216); fill-rule: nonzero; opacity: 1;"  paint-order="stroke"  transform=" translate(-510.5848053290248, -1434.1428999108975)" d="m 426.594 1493.88 c 0 0 -0.43 -2.78 -0.864 -5.57 c -0.484 -2.77 -0.718 -5.58 -0.718 -5.58 c -1.547 2.45 0.695 6.48 1.582 11.15 z m -0.25 -16.33 c -0.617 3.52 1.281 10.24 1.961 13 c 0.351 -4.4 -0.285 -9.04 -0.539 -14.51 c 0.265 5.46 -0.778 1.66 -1.422 1.51 z m 1.504 -14.09 l 1.597 0.39 c -0.547 -3.74 -1.398 -2.16 -1.718 -2.24 z m 2.062 -18.49 c 0.262 -3.36 0.578 -6.38 1.086 -6.83 l -0.691 -3.85 c -0.375 -0.12 -0.211 5.66 -0.395 10.68 z m 2.481 -24.54 c -0.793 -3.99 0.726 -7.02 1.32 -10.49 c -0.652 -0.27 -3.051 9.88 -1.922 -1.74 c -0.586 4.48 -0.406 10.92 -1.605 6.78 c -0.196 7.29 1.55 0.61 2.207 5.45 z m -0.504 7.13 c -0.489 3.51 -0.727 7.92 -0.114 9.94 c -0.039 -3.64 1.067 -6.83 0.114 -9.94 z m 0.066 85.94 c 0.274 -1.78 -0.808 -5.47 -1.207 -8.21 l -0.164 6.27 c 0.359 0.94 0.656 0.07 1.371 1.94 z m 23.5 -137.29 l 0.735 -0.77 c 0.023 -7.07 2.632 -9.64 4.125 -19.35 c -2.719 6.7 -4.067 14.18 -4.86 20.12 z m 0.735 -0.77 l 0.066 1.2 l 0.351 -1.64 z m 0.16 3.05 l -0.094 -1.85 c -1.203 5.21 -1.938 3.25 -2.164 9.68 c 0 0 0.547 -1.97 1.101 -3.93 c 0.504 -1.98 1.157 -3.9 1.157 -3.9 z m -20.68 37.57 c -0.117 4.49 1.766 7.46 1.645 11.92 c -0.489 2.09 -0.821 4.19 -1.168 6.3 c 0.07 4.49 0.585 11.33 0.226 13.47 c -1.152 8.48 -0.621 20.86 0.988 33.45 c 0.782 6.3 2.008 12.63 2.899 18.66 c 1.226 5.97 2.277 11.62 3.051 16.56 c 2.476 13.13 6.957 26.17 11.898 40.96 c 3.859 12.67 14.371 31.58 28.895 43.77 c 2.199 1.21 4.179 2.64 6.484 3.6 c 5.945 3.7 16.43 9.07 19.277 8.25 c 13.672 1.08 26.391 -4.75 35.571 -12.62 c 9.339 -7.88 16.238 -17.36 20.906 -26.76 c 14.742 -28.22 22.726 -58.77 25.394 -87.62 l 1.293 -1.63 c 0.012 -3.49 -0.058 -6.8 -0.66 -7.35 c 0.098 -1.85 0.203 -3.7 0.262 -5.53 c 0.805 -4.45 1.184 -8.49 0.129 -11.5 c 0.664 -3.64 0.89 -1.23 1.43 -3.31 c 0.082 -5.78 0.16 -11.84 0.238 -18 c 0.355 -1.86 0.633 -4.5 0.722 -10.04 l -0.472 -0.16 c 0.125 -4.5 0.246 -8.98 0.375 -13.46 c 0.414 -13.83 0.781 -26.45 1.637 -34.02 c -4.165 -9.67 -3.875 -22.73 -7.536 -34 c -3.691 -13.45 -10.132 -28.55 -13.226 -39.08 c -5.106 -16.95 -13.571 -29.72 -23.344 -38.63 l -1.199 -1.61 l -1.828 -1.19 l -0.739 -0.68 c -11.41 -8.95 -24.261 -12.02 -35.066 -10.11 c 1.168 2.72 2.195 5.69 4.563 8.26 c 2.378 2.8 5.769 5.49 12.074 11.04 c 1.906 1.77 3.922 3.79 5.941 5.9 c 2.223 3.49 4.512 7.44 6.817 11.95 c 2.023 1.99 4.222 4.73 6.582 7.78 c 2.113 3.33 4.355 7.01 6.406 10.88 c 0.746 1.63 1.414 3.21 2.168 4.82 l 0.347 2.02 c 1.129 1.61 2.372 4.2 3.524 6.91 c 1.191 3.19 2.359 6.32 3.305 8.86 c 7.433 31.8 11.214 61.7 12.203 91.91 c 0.418 23.62 0.351 47.92 -1.84 70.5 c -2.207 3.04 -5.055 8.25 -7.188 16.32 c -2.925 11.11 -7.601 23.51 -12.125 34.83 c -4.711 11.27 -9.664 20.8 -12.3 28.59 c -2.821 1.85 -5.321 4.19 -7.536 6.13 c -2.316 1.65 -4.066 3.69 -5.3 4.92 c -3.317 3.59 -7.645 6 -12.282 7.09 c -5.027 0.85 -9.918 -1.13 -14.691 -3.03 c -4.508 -2.68 -9.027 -5.75 -13.223 -9.72 c -5.246 -5.96 -9.882 -13.09 -13.765 -20.45 c -8.461 -13.82 -13.035 -32.02 -17.071 -44.17 c -2.925 -7.11 -4.214 -14.1 -5.761 -20.6 l -0.356 -2.07 c -0.195 -1.77 -0.375 -3.53 -0.285 -4.85 l -0.059 -0.01 c -0.109 -1.49 -0.238 -3 -0.496 -4.55 c 0.231 1.68 0.356 3.15 0.45 4.54 l -0.446 -0.05 c -0.379 -2.21 -0.761 -4.46 -1.14 -6.66 L 452.16 1481 c -0.113 -3.01 -0.23 -6.07 -0.336 -8.97 c -0.289 -5.78 -0.176 -10.8 0.625 -12.75 c -2.031 -3.89 -1.707 3.92 -0.824 10.71 c -1.059 -7.07 -1.664 -15.61 -2.125 -23.49 l 0.027 -1.37 c 0.399 3.27 1.254 5.67 0.586 9.38 c 0.742 1.87 1.176 1.11 1.492 -1.32 c -0.996 -7.05 -0.003 -19.9 -1.14 -22.15 c 0.242 -1.47 0.332 -3.2 0.758 -4.37 l -1.153 -3.86 l 0.36 -1.61 l -0.567 1.51 c 0.012 -3.56 0.09 -7.19 0.207 -10.77 c 0.45 -6.28 0.711 -12.3 0.348 -17.11 l -0.746 -1.94 c 0.859 -2 0.562 1.61 1.121 2.64 c 0.809 -6.82 1.402 -11.92 0.406 -14.24 l -1.73 11.21 l -0.926 -0.95 c -0.379 -4.03 -0.609 -7.45 -0.262 -8.7 c 2.012 -8.92 4.332 -15.51 6.875 -21.34 l 0.199 0.62 l -0.589 2.14 c -0.848 4.29 -1.825 9.23 -2.239 11.31 l 2.848 -7.63 l -0.312 -2.94 c 0.574 -2.43 1.222 -2.07 1.48 -1.9 l 0.109 -0.72 l 0.477 -0.42 l -0.344 -0.43 l 0.551 -3.58 l -0.266 -0.06 c 1.817 -3.08 3.59 -5.98 5.903 -12.82 l -0.059 -0.39 c 1.516 -3.28 3.055 -6.67 4.641 -10.71 c 0.461 -0.79 0.894 -3.89 1.179 -6.93 l 0.231 -0.65 c 0.285 -2.25 0.25 -3.41 0.082 -4.11 c 0.031 -1.07 0.012 -1.87 -0.094 -1.99 c -1.937 1.13 -4.523 5.69 -7.027 10.72 l 0.457 -1.38 l -0.395 0.7 l -0.121 0.8 c -1.988 4 -3.926 8.27 -5.39 11.37 c -1.668 1.7 -2.59 2.89 -4.176 4.92 c -2.442 3.31 -0.985 -5.6 -0.703 -7.97 c -8.805 11.49 -14.989 47.6 -15.93 76.6 z m 20.078 -55.84 l 0.051 -0.11 l 0.437 -0.76 l -0.347 1.05 z m 54.059 -92.74 c -2.575 1.06 3.59 -0.84 2.023 1.04 l 1.43 0.11 c 1.183 -1.24 -0.778 -1.18 -3.453 -1.15 z m 1.984 1.19 l 0.039 -0.15 l -1.551 0.12 l 0.086 0.1 z m 2.051 2.27 c -1.168 -0.57 -3.344 -0.93 -3.477 -2.2 l -0.847 0.04 c -1.153 0 -2.282 0.68 -2.282 0.58 c 1.536 -0.34 2.539 0.03 3.313 0.49 l 1.965 1.14 c -1.356 0.4 -3.664 0.26 -3.239 -0.6 l -1.804 1.77 c 0.008 0.19 1.605 -0.99 3.211 -0.81 c 1.593 -0.09 3.16 -0.41 3.16 -0.41 z m -11.008 -3.26 c 2.141 -0.22 4.277 -0.43 4.277 -0.43 c -1.203 -1.54 -3.949 0.33 -7.605 0.95 l -1.051 0.99 c 0 0 2.192 -0.75 4.379 -1.51 z m -7.227 9.71 c -1.132 -0.45 1.204 -3.82 -4.488 -0.03 c 1.684 -1.17 3.508 -1.69 3.317 -0.57 l -1.602 1.09 c -0.074 0.69 1.484 0.01 2.773 -0.49 z m -38.183 39 l 0.09 -0.23 l -0.02 0.01 c -3.179 1.64 -4.414 9.07 -7.871 13.78 l 1.852 1.43 c 1.992 -6.81 3.648 -7.56 5.949 -14.99 z m -27.832 132.86 c -0.129 1.38 -0.332 2.46 -0.719 2.74 c 0 0 -0.324 -3.23 -0.41 -6.46 c -0.133 -3.23 -0.273 -6.47 -0.273 -6.47 c 0 0 -0.141 2.92 -0.286 5.84 c -0.179 2.92 -0.211 5.86 -0.218 5.86 c 1.425 7.02 1.726 3.53 1.906 -1.51 z m -1.379 -18.39 l 1.371 -5.06 l -1.652 3.11 z" stroke-linecap="round" />
</g>
</g>
</g>
</svg>